<?xml version="1.0" encoding="UTF-8" standalone="no"?><svg xmlns:svg="http://www.w3.org/2000/svg" xmlns="http://www.w3.org/2000/svg" width="24" height="24" viewBox="0 0 24 24"><path d="M 4.7402344,3.6308594 C 3.2292324,3.6328594 1.9895111,4.72893 1.6738281,6.1875 1.2782621,6.626 1.0019531,7.190215 1.0019531,7.828125 c 0,1.36541 1.1150558,2.480469 2.4804688,2.480469 l 4.515625,0 c 0.1992729,0 0.3902518,-0.02941 0.5761719,-0.07422 0.087306,0.152017 0.2459156,0.258074 0.4335937,0.255859 l 2.8183595,0 c 0.07271,0.376578 0.218198,0.727753 0.429687,1.033204 -0.659111,0.658405 -1.326555,1.326559 -1.998047,1.998046 -0.101568,0.09943 -0.15181,0.231922 -0.15039,0.363282 -0.4505809,0.449594 -0.7304689,1.070222 -0.7304689,1.753906 0,1.36541 1.1150559,2.480469 2.4804689,2.480469 l 4.515625,0 c 1.365413,0 2.480469,-1.115059 2.480469,-2.480469 0,-0.470688 -0.155309,-0.899204 -0.394532,-1.267578 0.102412,-0.01633 0.201342,-0.05449 0.279297,-0.134766 l 0,-0.002 c 0.191887,-0.19754 0.187619,-0.512638 -0.0098,-0.705078 l -2.00586,-2.005859 c 0.21249,-0.306716 0.371163,-0.654056 0.44336,-1.033204 0.928578,4.97e-4 1.869991,0 2.816406,0 0.281502,0.003 0.510262,-0.226302 0.505859,-0.5078121 l 0,-0.00195 c -0.004,-0.2753701 -0.230233,-0.4937044 -0.505859,-0.4902344 l -2.81836,0 c -0.07283,-0.3759364 -0.220844,-0.7256958 -0.43164,-1.03125 0.659114,-0.6584078 1.326558,-1.3265595 1.998047,-1.9980469 0.201384,-0.19672 0.202167,-0.5208569 0,-0.7167969 -0.197547,-0.19189 -0.514588,-0.1875888 -0.707031,0.00977 l -2,2 c -0.306379,-0.2096973 -0.65146,-0.3665924 -1.029297,-0.4375 4.98e-4,-0.9316952 0,-1.8764744 0,-2.8261718 0.0033,-0.2815 -0.226324,-0.5102494 -0.507813,-0.5058594 -0.275373,0.004 -0.495421,0.2304694 -0.492187,0.5058594 l 0,2.8261718 c -0.38521,0.072291 -0.740152,0.2292213 -1.050782,0.4453126 -0.657166,-0.6578617 -1.323965,-1.3239661 -1.99414,-1.9941407 -0.196717,-0.20138 -0.520858,-0.1998137 -0.716797,0.00195 -0.191889,0.1975501 -0.187319,0.5126282 0.0098,0.7050782 l 2,2 c -0.205156,0.3023195 -0.356696,0.6437847 -0.425782,1.015625 -0.656889,-3.418e-4 -1.325284,-1.121e-4 -1.9921872,0 0.4019282,-0.4411646 0.6542972,-1.0211988 0.6542972,-1.6621094 0,-1.36541 -1.1150561,-2.4804688 -2.4804691,-2.4804688 l -0.5273438,0 C 6.9132221,4.3370662 5.9154184,3.6310194 4.7402344,3.6308594 Z m 0,1 0.00195,0 c 0.906917,9.2e-4 1.7180941,0.5538275 2.0488281,1.3984375 a 0.50005,0.50005 0 0 0 0.4648438,0.3183593 l 0.7421875,0 c 0.828416,0 1.4804687,0.6520588 1.4804687,1.4804688 0,0.82841 -0.6520527,1.4804688 -1.4804687,1.4804688 l -4.515625,0 c -0.828416,0 -1.4804688,-0.6520588 -1.4804688,-1.4804688 0,-0.40835 0.1625283,-0.7691994 0.4257813,-1.0371094 A 0.50005,0.50005 0 0 0 2.5664062,6.5117188 C 2.7253762,5.4287787 3.6458974,4.6331994 4.7402344,4.6308594 Z M 14.494141,8.265625 c 0.95832,0 1.722656,0.76375 1.722656,1.71875 0,0.636044 -0.34197,1.182646 -0.851563,1.480469 -0.08375,-0.007 -0.164419,-0.02333 -0.25,-0.02344 -0.370176,5.1e-5 -0.720458,0.07711 -1.046875,0.205078 -0.748243,-0.188297 -1.296875,-0.854542 -1.296875,-1.662109 0,-0.955 0.764338,-1.71875 1.722657,-1.71875 z m -1.529297,3.962891 c 0.03235,0.02213 0.07021,0.03586 0.103515,0.05664 -0.266276,0.251042 -0.497546,0.543618 -0.679687,0.873047 l -0.353516,0 0.929688,-0.929687 z m 2.15039,0.21289 c 1.095197,10e-4 2.016717,0.799233 2.175782,1.882813 a 0.50005,0.50005 0 0 0 0.136718,0.277343 c 0.263253,0.267901 0.425782,0.62877 0.425782,1.03711 0,0.82842 -0.652053,1.480469 -1.480469,1.480469 l -4.515625,0 c -0.828416,0 -1.480469,-0.652049 -1.480469,-1.480469 0,-0.82841 0.652053,-1.480469 1.480469,-1.480469 l 0.742187,0 a 0.50005,0.50005 0 0 0 0.464844,-0.316406 c 0.330972,-0.84522 1.143074,-1.400271 2.050781,-1.400391 z" /></svg>
