<?xml version="1.0" encoding="UTF-8" standalone="no"?><svg xmlns:svg="http://www.w3.org/2000/svg" xmlns="http://www.w3.org/2000/svg" width="24" height="24" viewBox="0 0 24 24"><path d="M 10 5.7929688 C 7.118271 5.7969687 4.682101 7.8897406 4.1875 10.712891 C 3.46295 11.508681 2.9960938 12.552777 2.9960938 13.716797 C 2.9960938 16.194617 5.006552 18.207031 7.484375 18.207031 L 9.390625 18.207031 C 9.6991787 19.237967 10.647672 20 11.775391 20 C 11.964131 20 12.1452 19.971788 12.322266 19.931641 L 14.462891 22.072266 L 17.998047 18.537109 L 17.539062 18.078125 C 19.52244 17.612763 21.005859 15.841046 21.005859 13.716797 C 21.005859 11.238977 18.993448 9.2265625 16.515625 9.2265625 L 15.330078 9.2265625 C 14.357836 7.1593725 12.307491 5.7932788 10 5.7929688 z M 10 6.8515625 L 10.001953 6.8515625 C 12.008994 6.8525625 13.8072 8.0802288 14.539062 9.9492188 C 14.618432 10.151759 14.813714 10.285046 15.03125 10.285156 L 16.515625 10.285156 C 18.425458 10.285156 19.949219 11.806957 19.949219 13.716797 C 19.949219 15.597133 18.469907 17.094628 16.601562 17.140625 L 14.462891 15.001953 L 14.109375 15.355469 L 13.693359 15.771484 C 13.536421 15.456104 13.383184 15.136213 13.208984 14.835938 C 12.697353 13.954017 12.1875 13.216797 12.1875 13.216797 L 11.775391 12.621094 L 11.365234 13.216797 C 11.365234 13.216797 10.85538 13.954018 10.34375 14.835938 C 10.087934 15.276897 9.8303414 15.754954 9.6308594 16.208984 C 9.486482 16.537594 9.3667073 16.842822 9.3105469 17.148438 L 7.484375 17.148438 C 5.574542 17.148438 4.0527344 15.626617 4.0527344 13.716797 C 4.0527344 12.773997 4.4282294 11.93216 5.0371094 11.3125 C 5.1160794 11.2323 5.1673917 11.128968 5.1835938 11.017578 C 5.5350478 8.6233981 7.580373 6.8556025 10 6.8515625 z M 11.775391 14.4375 C 11.963968 14.72442 12.060423 14.849511 12.34375 15.337891 C 12.56876 15.725758 12.782082 16.136343 12.953125 16.511719 L 10.927734 18.537109 L 11.310547 18.919922 C 10.707915 18.725669 10.275391 18.171053 10.275391 17.5 C 10.275391 17.37475 10.37136 17.010818 10.546875 16.611328 C 10.722393 16.211848 10.964799 15.758811 11.208984 15.337891 C 11.492033 14.849991 11.586813 14.72444 11.775391 14.4375 z M 14.462891 16.416016 L 16.583984 18.537109 L 14.462891 20.658203 L 12.341797 18.537109 L 14.462891 16.416016 z " /></svg>
