<?xml version="1.0" encoding="UTF-8" standalone="no"?><svg xmlns:svg="http://www.w3.org/2000/svg" xmlns="http://www.w3.org/2000/svg" width="24" height="24" viewBox="0 0 24 24"><path d="M 17.517578 3.6992188 C 15.497622 3.6992186 13.761836 4.9097942 12.972656 6.6367188 C 12.088368 6.1044858 11.068345 5.7950681 9.9863281 5.7949219 C 7.1045517 5.7985919 4.6683727 7.8916192 4.1738281 10.714844 C 3.4492783 11.510629 2.9804688 12.55473 2.9804688 13.71875 C 2.9804688 15.699283 4.269367 17.37486 6.0507812 17.970703 C 6.2775401 19.116448 7.2923268 19.988281 8.5019531 19.988281 C 9.6246973 19.988281 10.56991 19.232959 10.882812 18.208984 L 16.501953 18.208984 C 18.979777 18.208984 20.992188 16.196566 20.992188 13.71875 C 20.992188 11.657662 19.59173 9.9368286 17.697266 9.4101562 C 17.653464 9.1773406 17.623047 8.9394018 17.623047 8.6933594 C 17.623047 7.2774934 18.347158 6.0886573 19.513672 5.3828125 L 19.513672 4.1191406 C 18.901152 3.8513773 18.227272 3.6992188 17.517578 3.6992188 z M 17.517578 4.8144531 C 17.787017 4.8144529 18.049 4.8410451 18.302734 4.8925781 C 17.215753 5.8100466 16.509766 7.1656524 16.509766 8.6933594 C 16.509766 8.8773162 16.530863 9.0559374 16.550781 9.234375 C 16.534069 9.2341914 16.518708 9.2285156 16.501953 9.2285156 L 15.316406 9.2285156 C 14.967993 8.4877156 14.47621 7.8426369 13.888672 7.3125 C 14.446109 5.8516997 15.852637 4.8144545 17.517578 4.8144531 z M 9.9863281 6.8535156 C 11.994156 6.8537869 13.793291 8.0815723 14.525391 9.9511719 C 14.604761 10.153711 14.800043 10.287 15.017578 10.287109 L 16.501953 10.287109 C 18.411787 10.287109 19.933594 11.808915 19.933594 13.71875 C 19.933594 15.628574 18.411787 17.150391 16.501953 17.150391 L 10.970703 17.150391 C 10.916279 16.839554 10.795011 16.528922 10.648438 16.195312 C 10.448955 15.741285 10.191362 15.263228 9.9355469 14.822266 C 9.423916 13.940341 8.9140625 13.203125 8.9140625 13.203125 L 8.5019531 12.609375 L 8.0917969 13.203125 C 8.0917969 13.203125 7.5819433 13.940341 7.0703125 14.822266 C 6.8144971 15.263228 6.5569037 15.741285 6.3574219 16.195312 C 6.2558754 16.426437 6.1676811 16.646436 6.1035156 16.863281 C 4.8853321 16.339015 4.0390625 15.139918 4.0390625 13.71875 C 4.0390625 12.775951 4.4145577 11.934108 5.0234375 11.314453 C 5.1024035 11.234233 5.1537201 11.130921 5.1699219 11.019531 C 5.5214727 8.6246994 7.5658324 6.856594 9.9863281 6.8535156 z M 8.5039062 14.423828 C 8.692485 14.710767 8.787263 14.836312 9.0703125 15.324219 C 9.3144971 15.745133 9.5569037 16.19817 9.7324219 16.597656 C 9.9079401 16.997142 10.001953 17.363027 10.001953 17.488281 C 10.001953 18.322631 9.3363017 18.988281 8.5019531 18.988281 C 7.6676042 18.988281 7.0019531 18.322631 7.0019531 17.488281 C 7.0019531 17.363027 7.0979191 16.997142 7.2734375 16.597656 C 7.4489557 16.19817 7.6913623 15.745133 7.9355469 15.324219 C 8.2188734 14.835834 8.3153297 14.71074 8.5039062 14.423828 z " /></svg>
