<?xml version="1.0" encoding="UTF-8" standalone="no"?><svg xmlns:svg="http://www.w3.org/2000/svg" xmlns="http://www.w3.org/2000/svg" width="24" height="24" viewBox="0 0 24 24"><path d="m 17.702498,3.2394715 c -2.076631,-2e-7 -3.849925,1.280965 -4.605469,3.0859375 C 12.323411,5.948012 11.465137,5.7337337 10.563826,5.7336121 l -0.002,0 c -2.8829934,0.00367 -5.3174462,2.0968483 -5.8105469,4.9218749 -0.723948,0.795655 -1.1933594,1.838479 -1.1933594,3.001953 0,1.63388 0.8810076,3.056775 2.1875,3.841797 l -1.4042969,2.488281 -1.84375,3.265625 a 0.50004997,0.50004997 0 0 0 0.7597656,0.626953 l 3.6992188,-3.134765 1.6464844,-1.396485 -0.1289063,-0.01172 1.8554687,0.130859 a 0.50004997,0.50004997 0 0 0 0.470703,-0.251953 l 0.603516,-1.070313 3.269531,0 c -0.07096,0.227469 -0.117188,0.452287 -0.117188,0.679688 0,1.37479 1.125211,2.5 2.5,2.5 1.374789,0 2.5,-1.12521 2.5,-2.5 0,-0.407311 -0.145822,-0.802955 -0.332031,-1.232422 1.394381,-0.761663 2.34375,-2.235536 2.34375,-3.935547 0,-2.178164 -1.554331,-3.9943485 -3.613281,-4.4023435 -0.08932,-0.325723 -0.146485,-0.6664644 -0.146485,-1.0214844 0,-1.4158656 0.724112,-2.602749 1.890626,-3.3085938 l 0,-1.265625 C 19.086119,3.3916301 18.412192,3.2394716 17.702498,3.2394715 Z m 0,1.1152344 c 0.269439,-2e-7 0.531422,0.026592 0.785156,0.078125 -1.086981,0.9174685 -1.792969,2.2730746 -1.792969,3.8007812 0,0.3203 0.0405,0.6310507 0.09961,0.9335938 l -0.902344,0 C 15.465814,8.2614609 14.824744,7.5018267 14.05406,6.9211121 14.593676,5.4255867 16.012638,4.3547072 17.702498,4.3547059 Z m -7.138672,2.4355468 c 2.007827,2.71e-4 3.806961,1.2280583 4.539062,3.0976563 0.07937,0.202539 0.274653,0.335828 0.492188,0.335937 l 1.484375,0 c 1.909833,0 3.431641,1.523758 3.431641,3.433594 0,1.301658 -0.708798,2.419736 -1.763672,3.001953 -0.09075,-0.167487 -0.166598,-0.3394 -0.259766,-0.5 -0.511631,-0.881925 -1.021484,-1.61914 -1.021484,-1.61914 l -0.410157,-0.595704 -0.412109,0.595704 c 0,0 -0.509854,0.737215 -1.021484,1.61914 -0.173192,0.298539 -0.326186,0.616112 -0.482422,0.929688 l -3.138672,0 0.642578,-1.138672 1.84375,-3.267578 a 0.50004997,0.50004997 0 0 0 -0.443359,-0.746094 0.50004997,0.50004997 0 0 0 -0.314453,0.119141 l -3.699219,3.134765 -1.6464844,1.396485 0.1269531,0.01172 -1.8554687,-0.130861 a 0.50004997,0.50004997 0 0 0 -0.375,0.130859 C 5.281401,16.002079 4.6146073,14.917022 4.6146073,13.65744 c 0,-0.942799 0.3774483,-1.786596 0.9863281,-2.40625 0.078598,-0.0797 0.1298864,-0.182273 0.1464844,-0.292969 C 6.0989719,8.5633958 8.1433246,6.7933326 10.563826,6.7902527 Z m 1.677734,7.8359373 -0.46875,0.832031 -1.6875,2.990235 -1.5371089,-0.107422 -0.070312,-0.0059 a 0.50004997,0.50004997 0 0 0 -0.3632813,0.117187 l -1.8046875,1.53125 -1.5683594,1.328125 0.4707032,-0.832031 1.6894531,-2.992188 1.5371094,0.107422 0.068359,0.0059 A 0.50004997,0.50004997 0 0 0 8.87242,17.483612 l 1.804687,-1.53125 1.564453,-1.326172 z m 4.8125,1.134766 c 0.188577,0.286912 0.285033,0.412006 0.56836,0.90039 0.244184,0.420914 0.486591,0.873952 0.662109,1.273438 0.175518,0.399486 0.271484,0.765371 0.271484,0.890625 0,0.83435 -0.665651,1.5 -1.5,1.5 -0.834349,0 -1.5,-0.66565 -1.5,-1.5 0,-0.125254 0.09401,-0.491139 0.269532,-0.890625 0.175518,-0.399486 0.417924,-0.852524 0.662109,-1.273438 0.283049,-0.487907 0.377828,-0.613451 0.566406,-0.90039 z" /></svg>
