<?xml version="1.0" encoding="UTF-8" standalone="no"?><svg xmlns:svg="http://www.w3.org/2000/svg" xmlns="http://www.w3.org/2000/svg" width="24" height="24" viewBox="0 0 24 24"><path d="M 15.486328 2.0898438 C 15.210184 2.0938438 14.989822 2.3215164 14.994141 2.5976562 L 14.994141 5.4238281 C 14.60953 5.496007 14.253402 5.647062 13.943359 5.8632812 C 13.285551 5.2047478 12.618131 4.5380562 11.947266 3.8671875 C 11.750782 3.6644775 11.424982 3.6644675 11.228516 3.8671875 C 11.036081 4.0652775 11.041912 4.3820088 11.240234 4.5742188 L 13.238281 6.5722656 L 13.238281 6.5742188 C 13.205561 6.6224717 13.187843 6.6801015 13.158203 6.7304688 C 12.237208 6.1334553 11.150699 5.7931233 10 5.7929688 C 7.118271 5.7969687 4.682101 7.8897402 4.1875 10.712891 C 3.46295 11.508681 2.9960938 12.552777 2.9960938 13.716797 C 2.9960938 15.689645 4.2747719 17.359012 6.0449219 17.960938 C 6.2633843 19.116977 7.2810727 20 8.4980469 20 C 9.6257661 20 10.574259 19.237967 10.882812 18.207031 L 16.515625 18.207031 C 18.993448 18.207031 21.005859 16.194617 21.005859 13.716797 C 21.005859 11.698901 19.661911 10.01031 17.828125 9.4453125 C 17.980987 9.1835858 18.107427 8.9047863 18.166016 8.5976562 L 20.912109 8.5976562 C 21.690403 8.6076562 21.690403 7.5880963 20.912109 7.5976562 L 18.167969 7.5976562 C 18.097749 7.2206272 17.951825 6.8702578 17.742188 6.5644531 C 18.401346 5.9060201 19.068712 5.2379313 19.740234 4.5664062 C 19.942535 4.3703091 19.941738 4.0461892 19.740234 3.8496094 C 19.542142 3.6571694 19.22541 3.6610962 19.033203 3.859375 L 17.035156 5.8554688 C 16.72727 5.6430027 16.374616 5.495211 15.994141 5.4238281 C 15.994657 4.4920866 15.994141 3.5474007 15.994141 2.5976562 C 15.998541 2.3153862 15.768593 2.0854238 15.486328 2.0898438 z M 15.494141 6.3730469 C 16.452461 6.3730469 17.21875 7.1367969 17.21875 8.0917969 C 17.21875 8.5433959 17.041748 8.946424 16.759766 9.2519531 C 16.677246 9.2474231 16.599266 9.2265625 16.515625 9.2265625 L 15.330078 9.2265625 C 14.990199 8.5039073 14.511673 7.874462 13.943359 7.3515625 C 14.219029 6.7725437 14.803531 6.3730469 15.494141 6.3730469 z M 10 6.8515625 L 10.001953 6.8515625 C 12.008994 6.8525625 13.8072 8.0802287 14.539062 9.9492188 C 14.618433 10.151758 14.813715 10.285047 15.03125 10.285156 L 16.515625 10.285156 C 18.425458 10.285156 19.949219 11.806957 19.949219 13.716797 C 19.949219 15.626617 18.425458 17.148438 16.515625 17.148438 L 10.962891 17.148438 C 10.907299 16.842806 10.788916 16.53761 10.644531 16.208984 C 10.445049 15.754954 10.187457 15.276898 9.9316406 14.835938 C 9.4200096 13.954017 8.9101562 13.216797 8.9101562 13.216797 L 8.4980469 12.621094 L 8.0878906 13.216797 C 8.0878906 13.216797 7.5780372 13.954018 7.0664062 14.835938 C 6.8105903 15.276897 6.5529976 15.754954 6.3535156 16.208984 C 6.2555236 16.432019 6.1671815 16.644505 6.1035156 16.853516 C 4.8935164 16.325787 4.0527344 15.132052 4.0527344 13.716797 C 4.0527344 12.773997 4.4282294 11.93216 5.0371094 11.3125 C 5.1160754 11.23228 5.1673919 11.128968 5.1835938 11.017578 C 5.5350007 8.6233982 7.580373 6.8556025 10 6.8515625 z M 8.4980469 14.4375 C 8.6866239 14.72442 8.7830793 14.849511 9.0664062 15.337891 C 9.3105903 15.758811 9.5529976 16.211848 9.7285156 16.611328 C 9.9040336 17.010818 9.9980469 17.37475 9.9980469 17.5 C 9.9980469 18.33435 9.3323959 19 8.4980469 19 C 7.6636989 19 6.9980469 18.33435 6.9980469 17.5 C 6.9980469 17.37475 7.0940162 17.010818 7.2695312 16.611328 C 7.4450492 16.211848 7.6874566 15.758811 7.9316406 15.337891 C 8.2146906 14.849991 8.3094689 14.72444 8.4980469 14.4375 z " /></svg>
