<?xml version="1.0" encoding="UTF-8" standalone="no"?><svg xmlns:svg="http://www.w3.org/2000/svg" xmlns="http://www.w3.org/2000/svg" width="24" height="24" viewBox="0 0 24 24"><path d="M 15.492188 2.0839844 C 15.216043 2.0879844 14.995681 2.3156569 15 2.5917969 L 15 5.4179688 C 14.615389 5.4901688 14.259262 5.6412019 13.949219 5.8574219 C 13.291411 5.1988919 12.62399 4.5321981 11.953125 3.8613281 C 11.756641 3.6586181 11.430841 3.6586081 11.234375 3.8613281 C 11.04194 4.0594181 11.047772 4.3761494 11.246094 4.5683594 L 13.244141 6.5664062 L 13.244141 6.5683594 C 13.211421 6.6166594 13.193703 6.6742494 13.164062 6.7246094 C 12.243067 6.1275994 11.156558 5.7872594 10.005859 5.7871094 C 7.1241304 5.7911094 4.6879604 7.8838813 4.1933594 10.707031 C 3.4688094 11.502821 3.0019531 12.546918 3.0019531 13.710938 C 3.0019531 15.348724 3.8861597 16.774219 5.1972656 17.558594 L 3.7910156 20.050781 L 1.9472656 23.316406 A 0.50004997 0.50004997 0 0 0 2.7050781 23.943359 L 6.4042969 20.808594 L 8.0507812 19.410156 L 9.7792969 19.53125 A 0.50004997 0.50004997 0 0 0 10.25 19.279297 L 10.859375 18.201172 L 14.123047 18.201172 C 14.051661 18.428917 14.003906 18.652693 14.003906 18.880859 C 14.003906 20.255649 15.129117 21.380859 16.503906 21.380859 C 17.878695 21.380859 19.003906 20.255649 19.003906 18.880859 C 19.003906 18.472229 18.857022 18.077417 18.669922 17.646484 C 20.062486 16.88354 21.011719 15.409176 21.011719 13.710938 C 21.011719 11.693038 19.66777 10.004453 17.833984 9.4394531 C 17.986846 9.1777231 18.113286 8.8989269 18.171875 8.5917969 L 20.917969 8.5917969 C 21.696263 8.6017969 21.696263 7.5822369 20.917969 7.5917969 L 18.173828 7.5917969 C 18.103608 7.2147669 17.957684 6.8644038 17.748047 6.5585938 C 18.407205 5.9001637 19.074572 5.2320669 19.746094 4.5605469 C 19.948395 4.3644469 19.947598 4.04033 19.746094 3.84375 C 19.548002 3.65131 19.231269 3.6550056 19.039062 3.8535156 L 17.041016 5.8496094 C 16.73313 5.6371394 16.380475 5.4893487 16 5.4179688 C 16.000516 4.4862288 16 3.5415369 16 2.5917969 C 16.0044 2.3095269 15.774452 2.0795644 15.492188 2.0839844 z M 15.5 6.3671875 C 16.45832 6.3671875 17.224609 7.1309375 17.224609 8.0859375 C 17.224609 8.5375275 17.047607 8.9405638 16.765625 9.2460938 C 16.683105 9.2410938 16.605125 9.2207031 16.521484 9.2207031 L 15.335938 9.2207031 C 14.996059 8.4980531 14.517533 7.8686031 13.949219 7.3457031 C 14.224889 6.7666831 14.80939 6.3671875 15.5 6.3671875 z M 10.005859 6.8457031 L 10.007812 6.8457031 C 12.014854 6.8467031 13.81306 8.0743694 14.544922 9.9433594 C 14.624292 10.145899 14.819575 10.279187 15.037109 10.279297 L 16.521484 10.279297 C 18.431317 10.279297 19.955078 11.801097 19.955078 13.710938 C 19.955078 15.011162 19.244936 16.126222 18.191406 16.708984 C 18.101985 16.544154 18.027272 16.374906 17.935547 16.216797 C 17.423917 15.334877 16.914062 14.597656 16.914062 14.597656 L 16.503906 14.001953 L 16.091797 14.597656 C 16.091797 14.597656 15.581943 15.334877 15.070312 16.216797 C 14.897844 16.514089 14.745576 16.830292 14.589844 17.142578 L 11.457031 17.142578 L 12.09375 16.013672 A 0.50004997 0.50004997 0 0 0 12.09375 16.011719 L 13.9375 12.744141 A 0.50004997 0.50004997 0 0 0 13.494141 12 A 0.50004997 0.50004997 0 0 0 13.177734 12.117188 L 9.4785156 15.251953 L 7.8320312 16.650391 L 6.1054688 16.529297 A 0.50004997 0.50004997 0 0 0 5.734375 16.658203 C 4.7297387 16.062855 4.0585938 14.975031 4.0585938 13.710938 C 4.0585938 12.768137 4.4340888 11.926301 5.0429688 11.306641 C 5.1219188 11.226441 5.1732641 11.123099 5.1894531 11.011719 C 5.5409071 8.6175387 7.5862324 6.8497431 10.005859 6.8457031 z M 11.693359 14.685547 L 11.222656 15.521484 L 9.5332031 18.511719 L 7.9960938 18.402344 L 7.9277344 18.396484 A 0.50004997 0.50004997 0 0 0 7.5625 18.513672 L 5.7578125 20.044922 L 4.1933594 21.369141 L 4.6621094 20.541016 L 6.3496094 17.548828 L 7.8867188 17.658203 L 7.9570312 17.664062 A 0.50004997 0.50004997 0 0 0 8.3203125 17.546875 L 10.125 16.015625 L 11.693359 14.685547 z M 16.501953 15.818359 C 16.690529 16.105269 16.786986 16.23037 17.070312 16.71875 C 17.314498 17.13967 17.556903 17.592698 17.732422 17.992188 C 17.90794 18.391677 18.003906 18.755609 18.003906 18.880859 C 18.003906 19.715209 17.338255 20.380859 16.503906 20.380859 C 15.669557 20.380859 15.003906 19.715209 15.003906 18.880859 C 15.003906 18.755609 15.097916 18.391677 15.273438 17.992188 C 15.448955 17.592698 15.691363 17.13967 15.935547 16.71875 C 16.218597 16.23085 16.313374 16.105299 16.501953 15.818359 z " /></svg>
