<?xml version="1.0" encoding="UTF-8" standalone="no"?><svg xmlns:svg="http://www.w3.org/2000/svg" xmlns="http://www.w3.org/2000/svg" width="24" height="24" viewBox="0 0 24 24"><path d="M 4.7324219 3.6738281 C 3.2161656 3.6757564 1.9700674 4.7777501 1.6601562 6.2441406 C 1.2701708 6.681449 0.99414063 7.2382897 0.99414062 7.8710938 C 0.99414062 9.2365018 2.1091964 10.351562 3.4746094 10.351562 L 4.3066406 10.351562 C 4.2778612 10.471476 4.2325056 10.584236 4.2109375 10.707031 C 3.4842366 11.503257 3.015625 12.548871 3.015625 13.714844 C 3.015625 16.192659 5.0260832 18.203125 7.5039062 18.203125 L 16.535156 18.203125 C 19.012979 18.203125 21.025391 16.192659 21.025391 13.714844 C 21.025391 11.237018 19.012979 9.2246095 16.535156 9.2246094 L 16.095703 9.2246094 C 16.32721 8.1932431 16.949483 7.3279591 17.869141 6.7714844 L 17.869141 5.5078125 C 17.256621 5.2400492 16.582741 5.0878907 15.873047 5.0878906 C 14.592482 5.0878905 13.433388 5.5845557 12.546875 6.3789062 C 11.774523 6.003455 10.918387 5.7911371 10.019531 5.7910156 C 9.8105489 5.7912811 9.6099414 5.8239919 9.40625 5.8457031 C 9.0033076 5.5626407 8.5178102 5.390625 7.9902344 5.390625 L 7.4609375 5.390625 C 6.9034205 4.3801729 5.9075154 3.673986 4.7324219 3.6738281 z M 4.7324219 4.6738281 C 5.6401285 4.6739501 6.4522309 5.2270504 6.7832031 6.0722656 C 6.8579341 6.2638843 7.0423719 6.3902011 7.2480469 6.390625 L 7.4902344 6.390625 C 6.2253559 7.0005763 5.2131049 8.0436471 4.640625 9.3515625 L 3.4746094 9.3515625 C 2.6461936 9.3515625 1.9941406 8.6995056 1.9941406 7.8710938 C 1.9941406 7.46275 2.1566685 7.0999391 2.4199219 6.8320312 C 2.4936512 6.7563494 2.5415131 6.6592578 2.5566406 6.5546875 C 2.715706 5.471102 3.6372245 4.6752209 4.7324219 4.6738281 z M 15.873047 6.203125 C 16.142486 6.2031248 16.404469 6.229717 16.658203 6.28125 C 15.906099 6.9160653 15.355815 7.7681668 15.076172 8.734375 C 14.674062 8.0506296 14.149006 7.4646186 13.533203 6.9960938 C 14.185103 6.5043117 14.989048 6.2031257 15.873047 6.203125 z M 10.019531 6.8476562 L 10.021484 6.8476562 C 12.028525 6.8487263 13.826732 8.0763194 14.558594 9.9453125 A 0.52891334 0.52891334 0 0 0 15.050781 10.28125 L 16.535156 10.28125 C 18.444989 10.28125 19.96875 11.805007 19.96875 13.714844 C 19.96875 14.798492 19.466683 15.744406 18.693359 16.371094 C 18.753376 16.157998 18.796875 15.936826 18.796875 15.705078 C 18.796875 15.066921 18.520841 14.503012 18.125 14.064453 C 17.808952 12.60638 16.571214 11.509733 15.060547 11.507812 A 0.50005 0.50005 0 0 0 15.058594 11.507812 C 13.883409 11.507971 12.887559 12.214023 12.330078 13.224609 L 11.800781 13.224609 C 10.435368 13.224609 9.3203125 14.33967 9.3203125 15.705078 C 9.3203125 16.243474 9.4992409 16.738951 9.7929688 17.146484 L 7.5039062 17.146484 C 5.5940734 17.146484 4.0722656 15.624666 4.0722656 13.714844 C 4.0722656 12.772045 4.4497141 11.928248 5.0585938 11.308594 A 0.52891334 0.52891334 0 0 0 5.203125 11.015625 C 5.5545794 8.6214491 7.5999042 6.8517011 10.019531 6.8476562 z M 15.058594 12.507812 C 16.153791 12.509213 17.075309 13.305087 17.234375 14.388672 A 0.50005 0.50005 0 0 0 17.373047 14.666016 C 17.6363 14.933924 17.796875 15.296734 17.796875 15.705078 C 17.796875 16.397321 17.338136 16.96052 16.705078 17.128906 C 16.647477 17.131715 16.593511 17.146484 16.535156 17.146484 L 11.46875 17.146484 C 10.805617 16.998319 10.320312 16.418337 10.320312 15.705078 C 10.320312 14.876666 10.972366 14.224609 11.800781 14.224609 L 12.542969 14.224609 A 0.50005 0.50005 0 0 0 13.009766 13.90625 C 13.340738 13.061035 14.150887 12.507934 15.058594 12.507812 z " /></svg>
