<?xml version="1.0" encoding="UTF-8" standalone="no"?><svg xmlns:svg="http://www.w3.org/2000/svg" xmlns="http://www.w3.org/2000/svg" width="24" height="24" viewBox="0 0 24 24"><path d="M 4.7421875,3.6308594 C 3.2311855,3.6328594 1.9914653,4.72893 1.6757812,6.1875 1.2802162,6.626 1.0039062,7.190215 1.0039062,7.828125 c 0,1.36541 1.1150558,2.480469 2.4804688,2.480469 l 4.3535156,0 c 0.1493468,1.528105 0.9823839,2.858241 2.1992184,3.669922 -0.4019278,0.441164 -0.6542965,1.021198 -0.6542965,1.662109 0,1.36541 1.1150555,2.480469 2.4804685,2.480469 l 4.515625,0 c 1.365413,0 2.480469,-1.115059 2.480469,-2.480469 0,-0.63816 -0.276034,-1.202065 -0.671875,-1.640625 -0.316048,-1.45807 -1.553786,-2.554721 -3.064453,-2.556641 a 0.50005,0.50005 0 0 0 -0.002,0 c -0.583566,8e-5 -1.122533,0.173597 -1.585938,0.472657 -0.391181,-0.603128 -0.625,-1.318687 -0.625,-2.0937504 0,-1.41587 0.724111,-2.6047069 1.890625,-3.3105468 l 0,-1.2636719 c -0.61252,-0.26776 -1.2864,-0.4199219 -1.996093,-0.4199219 -1.204866,0 -2.302828,0.4400378 -3.1679692,1.1523438 C 9.1984777,5.591604 8.6291241,5.3476562 8,5.3476562 l -0.5273438,0 C 6.9151763,4.3370662 5.9173715,3.6310194 4.7421875,3.6308594 Z m 0,1 0.00195,0 c 0.906916,9.2e-4 1.7180931,0.5538275 2.0488282,1.3984375 a 0.50005,0.50005 0 0 0 0.4648437,0.3183593 l 0.7421875,0 c 0.828415,0 1.4804688,0.6520588 1.4804688,1.4804688 0,0.82841 -0.6520538,1.4804688 -1.4804688,1.4804688 l -4.515625,0 c -0.828415,0 -1.4804688,-0.6520588 -1.4804688,-1.4804688 0,-0.40835 0.1625273,-0.7691994 0.4257813,-1.0371094 A 0.50005,0.50005 0 0 0 2.5683594,6.5117188 C 2.7273294,5.4287787 3.6478495,4.6331994 4.7421875,4.6308594 Z m 8.0625005,1.3125 c 0.269439,0 0.531422,0.026625 0.785156,0.078125 -1.086981,0.91747 -1.792969,2.2730712 -1.792969,3.8007812 0,1.0650234 0.357335,2.0349544 0.933594,2.8417964 -0.123202,0.156213 -0.240212,0.319024 -0.337891,0.496094 l -0.529297,0 c -0.270313,0 -0.525552,0.05407 -0.769531,0.134766 -1.2028616,-0.58965 -2.0435708,-1.77217 -2.1503906,-3.175781 0.8995255,-0.373124 1.5371096,-1.2598094 1.5371096,-2.291016 0,-0.3355113 -0.06763,-0.6548156 -0.189453,-0.9472656 0.678808,-0.5772628 1.547636,-0.9374918 2.513672,-0.9375 z m 2.316406,6.4999996 c 1.095197,0.001 2.016715,0.79728 2.175781,1.88086 a 0.50005,0.50005 0 0 0 0.138672,0.279297 c 0.263253,0.26791 0.423828,0.628759 0.423828,1.037109 0,0.82841 -0.652054,1.480469 -1.480469,1.480469 l -4.515625,0 c -0.828415,0 -1.480469,-0.652059 -1.480469,-1.480469 0,-0.82841 0.652054,-1.480469 1.480469,-1.480469 l 0.742188,0 a 0.50005,0.50005 0 0 0 0.466797,-0.318359 c 0.330972,-0.84522 1.141121,-1.398318 2.048828,-1.398438 z" /></svg>
