<?xml version="1.0" encoding="UTF-8" standalone="no"?><svg xmlns:svg="http://www.w3.org/2000/svg" xmlns="http://www.w3.org/2000/svg" width="24" height="24" viewBox="0 0 24 24"><path d="m 10,5.7929688 c -2.881729,0.004 -5.317899,2.0967718 -5.8125,4.9199222 -0.72455,0.79579 -1.1914062,1.839886 -1.1914062,3.003906 0,2.47782 2.0104582,4.490234 4.4882812,4.490234 l 1.90625,0 C 9.6991787,19.237967 10.647672,20 11.775391,20 c 0.18874,0 0.369809,-0.02821 0.546875,-0.06836 l 2.140625,2.140625 3.535156,-3.535157 -0.458985,-0.458984 c 1.983378,-0.465362 3.466797,-2.237079 3.466797,-4.361328 0,-2.47782 -2.012411,-4.4902345 -4.490234,-4.4902345 l -1.185547,0 C 14.357836,7.1593725 12.307491,5.7932788 10,5.7929688 Z m 0,1.0585937 0.002,0 c 2.007041,0.001 3.805247,1.2286663 4.537109,3.0976563 0.07937,0.2025402 0.274652,0.3358272 0.492188,0.3359372 l 1.484375,0 c 1.909833,0 3.433594,1.521801 3.433594,3.431641 0,1.880336 -1.479312,3.377831 -3.347657,3.423828 l -2.138671,-2.138672 -0.353516,0.353516 -0.416016,0.416015 C 13.536421,15.456104 13.383184,15.136213 13.208984,14.835938 12.697353,13.954017 12.1875,13.216797 12.1875,13.216797 l -0.412109,-0.595703 -0.410157,0.595703 c 0,0 -0.509854,0.737221 -1.021484,1.619141 -0.255816,0.440959 -0.5134086,0.919016 -0.7128906,1.373046 -0.1443774,0.32861 -0.2641521,0.633838 -0.3203125,0.939454 l -1.8261719,0 c -1.909833,0 -3.4316406,-1.521821 -3.4316406,-3.431641 0,-0.9428 0.375495,-1.784637 0.984375,-2.404297 0.07897,-0.0802 0.1302823,-0.183532 0.1464844,-0.294922 C 5.5350478,8.6233981 7.580373,6.8556025 10,6.8515625 Z" /></svg>
