<?xml version="1.0" encoding="UTF-8" standalone="no"?><svg xmlns:svg="http://www.w3.org/2000/svg" xmlns="http://www.w3.org/2000/svg" width="24" height="24" viewBox="0 0 24 24"><path d="m 10,5.7929688 c -2.881729,0.004 -5.317899,2.0967718 -5.8125,4.9199222 -0.72455,0.79579 -1.1914062,1.839886 -1.1914062,3.003906 0,2.47782 2.0104582,4.490234 4.4882812,4.490234 l 5.90625,0 C 13.699179,19.237967 14.647672,20 15.775391,20 c 0.188821,0 0.369738,-0.02818 0.546875,-0.06836 l 2.140625,2.140625 3.535156,-3.535157 -2.001953,-2.001953 c 0.626016,-0.771866 1.009765,-1.748316 1.009765,-2.818359 0,-2.47782 -2.012411,-4.4902345 -4.490234,-4.4902345 l -1.185547,0 C 14.357836,7.1593725 12.307491,5.7932788 10,5.7929688 Z m 0,1.0585937 0.002,0 c 2.007041,0.001 3.805247,1.2286663 4.537109,3.0976563 0.07937,0.2025402 0.274652,0.3358272 0.492188,0.3359372 l 1.484375,0 c 1.909833,0 3.433594,1.521801 3.433594,3.431641 0,0.783898 -0.264462,1.497508 -0.699219,2.072265 l -0.787109,-0.787109 -0.353516,0.353516 -0.416016,0.416015 C 17.536421,15.456104 17.383184,15.136213 17.208984,14.835938 16.697353,13.954017 16.1875,13.216797 16.1875,13.216797 l -0.412109,-0.595703 -0.410157,0.595703 c 0,0 -0.509854,0.737221 -1.021484,1.619141 -0.255816,0.440959 -0.513409,0.919016 -0.712891,1.373046 -0.144377,0.32861 -0.264152,0.633838 -0.320312,0.939454 l -5.826172,0 c -1.909833,0 -3.4316406,-1.521821 -3.4316406,-3.431641 0,-0.9428 0.375495,-1.784637 0.984375,-2.404297 0.07897,-0.0802 0.1302823,-0.183532 0.1464844,-0.294922 C 5.5350478,8.6233981 7.580373,6.8556025 10,6.8515625 Z M 9.53125,7.9980469 8.8242188,8.7050781 9.6777344,9.5585938 9.6777344,10.25 8.4414062,9.3457031 8.6074219,10.880859 7.9257812,10.476562 7.6269531,9.3066406 6.6582031,9.5546875 6.78125,10.037109 l -0.2988281,0.50586 -0.484375,0.123047 0.2480469,0.96875 1.1699218,-0.298828 0.6816406,0.404296 -1.3945312,0.615235 1.3925781,0.613281 -0.5878906,0.341797 -1.1660156,-0.308594 -0.2558594,0.966797 0.4824219,0.128906 0.296875,0.50586 -0.1289063,0.482422 0.96875,0.253906 0.3066407,-1.166016 0.5957031,-0.347656 -0.1660157,1.539062 1.2363282,-0.90625 0,0.679688 -0.8535156,0.853516 0.7070312,0.707031 0.3535156,-0.353516 0.5859374,0 0.353516,0.353516 0.707031,-0.707031 -0.853516,-0.853516 0,-0.679688 1.238282,0.90625 -0.164063,-1.507812 0.636719,0.365234 0.316406,1.167969 0.964844,-0.261719 -0.13086,-0.480468 0.292969,-0.509766 0.482422,-0.13086 -0.259765,-0.964843 -1.166016,0.314453 -0.654297,-0.375 1.419922,-0.626953 -1.039063,-0.458985 -0.34375,-0.15039 0.587891,-0.347656 1.169922,0.302734 0.25,-0.96875 -0.484375,-0.125 -0.298828,-0.50586 0.125,-0.4824214 -0.96875,-0.25 -0.298828,1.1679684 -0.607422,0.357422 0.169922,-1.5488279 -1.238282,0.9062499 0,-0.6933592 0.853516,-0.8535157 -0.707031,-0.7070312 -0.353516,0.3535156 -0.5859374,0 z m 0.1464844,3.4941411 0.00195,0 0.9980465,0 0.498047,0.861328 -0.501953,0.865234 -0.9941405,-0.002 -0.5,-0.861328 z" /></svg>
