<?xml version="1.0" encoding="UTF-8" standalone="no"?><svg xmlns:svg="http://www.w3.org/2000/svg" xmlns="http://www.w3.org/2000/svg" width="24" height="24" viewBox="0 0 24 24"><path d="m 10,5.7929688 c -2.881729,0.004 -5.317899,2.0967718 -5.8125,4.9199222 -0.72455,0.79579 -1.1914062,1.839886 -1.1914062,3.003906 0,2.47782 2.0104582,4.490234 4.4882812,4.490234 l 5.1875,0 L 14.464844,20 l 1.792968,-1.792969 0.257813,0 c 2.477823,0 4.490234,-2.012414 4.490234,-4.490234 0,-2.47782 -2.012411,-4.4902345 -4.490234,-4.4902345 l -1.185547,0 C 14.357836,7.1593725 12.307491,5.7932788 10,5.7929688 Z m 0,1.0585937 0.002,0 c 2.007041,0.001 3.805247,1.2286663 4.537109,3.0976563 0.07937,0.2025402 0.274652,0.3358272 0.492188,0.3359372 l 1.484375,0 c 1.909833,0 3.433594,1.521801 3.433594,3.431641 0,1.578003 -1.047536,2.876503 -2.486328,3.285156 L 18,16.464844 l -3.535156,-3.535156 -0.353516,0.353515 -3.18164,3.181641 0.683593,0.683594 -4.128906,0 c -1.909833,0 -3.4316406,-1.521821 -3.4316406,-3.431641 0,-0.9428 0.375495,-1.784637 0.984375,-2.404297 0.07897,-0.0802 0.1302823,-0.183532 0.1464844,-0.294922 C 5.5350478,8.6233981 7.580373,6.8556025 10,6.8515625 Z" /></svg>
