<?xml version="1.0" encoding="UTF-8" standalone="no"?><svg xmlns:svg="http://www.w3.org/2000/svg" xmlns="http://www.w3.org/2000/svg" width="24" height="24" viewBox="0 0 24 24"><path d="m 10,5.7929688 c -2.881729,0.004 -5.317899,2.0967718 -5.8125,4.9199222 -0.72455,0.79579 -1.1914062,1.839886 -1.1914062,3.003906 0,1.677943 0.9262989,3.135568 2.2910156,3.90625 C 5.3531194,18.940121 6.4427029,20 7.7753906,20 8.903109,20 9.8516025,19.237967 10.160156,18.207031 l 1.230469,0 C 11.699179,19.237967 12.647672,20 13.775391,20 c 0.18892,0 0.369652,-0.02813 0.546875,-0.06836 l 2.140625,2.140625 3.535156,-3.535157 -1.052735,-1.052734 c 1.237102,-0.800116 2.060547,-2.186294 2.060547,-3.767578 0,-2.47782 -2.012411,-4.4902345 -4.490234,-4.4902345 l -1.185547,0 C 14.357836,7.1593725 12.307491,5.7932788 10,5.7929688 Z m 0,1.0585937 0.002,0 c 2.007041,0.001 3.805247,1.2286663 4.537109,3.0976563 0.07937,0.2025402 0.274652,0.3358272 0.492188,0.3359372 l 1.484375,0 c 1.909833,0 3.433594,1.521801 3.433594,3.431641 0,1.30291 -0.71434,2.418263 -1.771485,3 l -1.714843,-1.714844 -0.353516,0.353516 -0.416016,0.416015 C 15.536421,15.456104 15.383184,15.136213 15.208984,14.835938 14.697353,13.954017 14.1875,13.216797 14.1875,13.216797 l -0.412109,-0.595703 -0.410157,0.595703 c 0,0 -0.509854,0.737221 -1.021484,1.619141 -0.255816,0.440959 -0.513409,0.919016 -0.712891,1.373046 -0.144377,0.32861 -0.264152,0.633838 -0.320312,0.939454 l -1.070313,0 C 10.184643,16.842806 10.066259,16.53761 9.921875,16.208984 9.722393,15.754954 9.4647994,15.276898 9.2089844,14.835938 8.6973534,13.954017 8.1875,13.216797 8.1875,13.216797 L 7.7753906,12.621094 7.3652344,13.216797 c 0,0 -0.5098544,0.737221 -1.0214844,1.619141 -0.255816,0.440959 -0.5134086,0.919016 -0.7128906,1.373046 -0.048122,0.109527 -0.081567,0.211152 -0.1230469,0.316407 -0.8817681,-0.61805 -1.4550781,-1.638475 -1.4550781,-2.808594 0,-0.9428 0.375495,-1.784637 0.984375,-2.404297 0.07897,-0.0802 0.1302823,-0.183532 0.1464844,-0.294922 C 5.5350478,8.6233981 7.580373,6.8556025 10,6.8515625 Z" /></svg>
