<?xml version="1.0" encoding="UTF-8" standalone="no"?><svg xmlns:svg="http://www.w3.org/2000/svg" xmlns="http://www.w3.org/2000/svg" width="24" height="24" viewBox="0 0 24 24"><path d="m 10,5.7929688 c -2.881729,0.004 -5.317899,2.0967718 -5.8125,4.9199222 -0.72455,0.79579 -1.1914062,1.839886 -1.1914062,3.003906 0,1.678441 0.9256396,3.13771 2.2910156,3.908203 C 5.3541112,18.941162 6.4433648,20 7.7753906,20 8.903109,20 9.8516025,19.237967 10.160156,18.207031 l 2.511719,0 L 14.464844,20 l 1.792968,-1.792969 0.257813,0 c 2.477823,0 4.490234,-2.012414 4.490234,-4.490234 0,-2.47782 -2.012411,-4.4902345 -4.490234,-4.4902345 l -1.185547,0 C 14.357836,7.1593725 12.307491,5.7932788 10,5.7929688 Z m 0,1.0585937 0.002,0 c 2.007041,0.001 3.805247,1.2286663 4.537109,3.0976563 0.07937,0.2025402 0.274652,0.3358272 0.492188,0.3359372 l 1.484375,0 c 1.909833,0 3.433594,1.521801 3.433594,3.431641 0,1.578003 -1.047536,2.876503 -2.486328,3.285156 L 18,16.464844 l -3.535156,-3.535156 -0.353516,0.353515 -3.18164,3.181641 0.683593,0.683594 -1.373047,0 C 10.184643,16.842806 10.066259,16.53761 9.921875,16.208984 9.722393,15.754954 9.4647994,15.276898 9.2089844,14.835938 8.6973534,13.954017 8.1875,13.216797 8.1875,13.216797 L 7.7753906,12.621094 7.3652344,13.216797 c 0,0 -0.5098544,0.737221 -1.0214844,1.619141 -0.255816,0.440959 -0.5134086,0.919016 -0.7128906,1.373046 -0.048122,0.109527 -0.081567,0.211152 -0.1230469,0.316407 -0.8818188,-0.618039 -1.4550781,-1.638431 -1.4550781,-2.808594 0,-0.9428 0.375495,-1.784637 0.984375,-2.404297 0.07897,-0.0802 0.1302823,-0.183532 0.1464844,-0.294922 C 5.5350478,8.6233981 7.580373,6.8556025 10,6.8515625 Z" /></svg>
