<?xml version="1.0" encoding="UTF-8" standalone="no"?><svg xmlns:svg="http://www.w3.org/2000/svg" xmlns="http://www.w3.org/2000/svg" width="24" height="24" viewBox="0 0 24 24"><path d="M 17.126953 3.3125 C 15.050322 3.3124998 13.277028 4.593465 12.521484 6.3984375 C 11.747866 6.0210405 10.889592 5.8067622 9.9882812 5.8066406 A 0.52891334 0.52891334 0 0 0 9.9863281 5.8066406 C 7.103343 5.8103106 4.6688819 7.9034829 4.1757812 10.728516 C 3.4518332 11.524176 2.9824219 12.566995 2.9824219 13.730469 C 2.9824219 16.208285 4.9948333 18.21875 7.4726562 18.21875 L 16.503906 18.21875 C 18.981729 18.21875 20.992188 16.208285 20.992188 13.730469 C 20.992188 11.552305 19.437856 9.7361199 17.378906 9.328125 C 17.28959 9.002402 17.232422 8.6616603 17.232422 8.3066406 C 17.232422 6.8907746 17.956533 5.7038917 19.123047 4.9980469 L 19.123047 3.7324219 C 18.510527 3.4646586 17.836647 3.3125001 17.126953 3.3125 z M 17.126953 4.4277344 C 17.396392 4.4277342 17.658375 4.4543264 17.912109 4.5058594 C 16.825128 5.4233279 16.119141 6.7789336 16.119141 8.3066406 C 16.119141 8.6269403 16.159646 8.9376914 16.21875 9.2402344 L 15.316406 9.2402344 C 14.89027 8.3344891 14.2492 7.574855 13.478516 6.9941406 C 14.018132 5.4986152 15.437093 4.4277357 17.126953 4.4277344 z M 9.9882812 6.8632812 C 11.996108 6.8635522 13.795243 8.091339 14.527344 9.9609375 A 0.52891334 0.52891334 0 0 0 15.019531 10.296875 L 16.503906 10.296875 C 18.413739 10.296875 19.935547 11.820633 19.935547 13.730469 C 19.935547 15.640293 18.413739 17.162109 16.503906 17.162109 L 7.4726562 17.162109 C 5.5628234 17.162109 4.0390625 15.640293 4.0390625 13.730469 C 4.0390625 12.78767 4.4165107 11.943873 5.0253906 11.324219 A 0.52891334 0.52891334 0 0 0 5.171875 11.03125 C 5.5234271 8.6364205 7.5677879 6.8663611 9.9882812 6.8632812 z " /></svg>
