<?xml version="1.0" encoding="UTF-8" standalone="no"?><svg xmlns:svg="http://www.w3.org/2000/svg" xmlns="http://www.w3.org/2000/svg" width="24" height="24" viewBox="0 0 24 24"><path d="m 10.555124,5.7328645 c -2.881729,0.004 -5.317899,2.09677 -5.8125,4.9199195 -0.72455,0.79579 -1.191406,1.83989 -1.191406,3.00391 0,1.6386 0.883121,3.06744 2.195312,3.85156 l -1.40039,2.48242 -1.84375,3.26563 c -0.2704621,0.484739 0.3323197,0.98343 0.757812,0.62695 l 3.699219,-3.13477 1.646484,-1.39843 1.728516,0.12109 c 0.192358,0.01381 0.375514,-0.08423 0.470703,-0.25195 l 0.605469,-1.07227 3.265625,0 c -0.07035,0.2258 -0.117188,0.44754 -0.117188,0.67383 0,1.37479 1.125211,2.5 2.5,2.5 1.374789,0 2.5,-1.12521 2.5,-2.5 0,-0.40863 -0.146884,-0.80344 -0.333984,-1.23438 1.388435,-0.76414 2.335937,-2.23451 2.335937,-3.92968 0,-2.47782 -2.012411,-4.4902395 -4.490234,-4.4902395 l -1.185547,0 c -0.972242,-2.06719 -3.022587,-3.43328 -5.330078,-3.43359 z m 0,1.05859 0.002,0 c 2.007041,10e-4 3.805247,1.22867 4.537109,3.09766 0.07937,0.2025395 0.274652,0.3358295 0.492188,0.3359395 l 1.484375,0 c 1.909833,0 3.433594,1.5218 3.433594,3.43164 0,1.29769 -0.70769,2.41041 -1.757813,2.99414 -0.08968,-0.16536 -0.163848,-0.33554 -0.255859,-0.49414 -0.51163,-0.88192 -1.021485,-1.61914 -1.021485,-1.61914 l -0.410156,-0.59571 -0.412109,0.59571 c 0,0 -0.509854,0.73722 -1.021485,1.61914 -0.173626,0.29929 -0.327835,0.61728 -0.484374,0.93164 l -3.132813,0 0.640625,-1.13477 0,-0.002 1.84375,-3.26758 c 0.187978,-0.336015 -0.05837,-0.749497 -0.443359,-0.74414 -0.115861,0.0012 -0.2277,0.04265 -0.316407,0.11719 l -3.699218,3.13476 -1.646485,1.39844 -1.726562,-0.12109 c -0.1389341,-0.0095 -0.2755486,0.03931 -0.376953,0.13476 -1.004597,-0.59535 -1.675782,-1.6832 -1.675782,-2.94726 0,-0.9428 0.375495,-1.78464 0.984375,-2.4043 0.07897,-0.0802 0.130283,-0.18353 0.146485,-0.29492 0.351454,-2.3941795 2.396779,-4.1619795 4.816406,-4.1660195 z m 1.693359,7.8339895 -0.470703,0.83593 -1.689453,2.99024 -1.537109,-0.10938 -0.06836,-0.006 c -0.1324823,-0.01104 -0.2639074,0.03113 -0.365234,0.11719 l -1.804688,1.53125 -1.564453,1.32422 0.46875,-0.82812 1.6875,-2.99219 1.53711,0.10937 0.07031,0.006 c 0.1318245,0.01051 0.2624459,-0.03162 0.363281,-0.11718 l 1.804688,-1.53125 z" /></svg>
