<?xml version="1.0" encoding="UTF-8" standalone="no"?><svg xmlns:svg="http://www.w3.org/2000/svg" xmlns="http://www.w3.org/2000/svg" width="24" height="24" viewBox="0 0 24 24"><path d="m 10,5.7929688 c -2.881729,0.004 -5.317899,2.0967718 -5.8125,4.9199222 -0.72455,0.79579 -1.1914062,1.839886 -1.1914062,3.003906 0,2.47782 2.0104582,4.490234 4.4882812,4.490234 l 5.90625,0 C 13.699179,19.237967 14.647672,20 15.775391,20 c 1.25378,0 2.290384,-0.938959 2.464843,-2.146484 1.620411,-0.67805 2.765625,-2.27179 2.765625,-4.136719 0,-2.47782 -2.012411,-4.4902345 -4.490234,-4.4902345 l -1.185547,0 C 14.357836,7.1593725 12.307491,5.7932788 10,5.7929688 Z m 0,1.0585937 0.002,0 c 2.007041,0.001 3.805247,1.2286663 4.537109,3.0976563 0.07937,0.2025402 0.274652,0.3358272 0.492188,0.3359372 l 1.484375,0 c 1.909833,0 3.433594,1.521801 3.433594,3.431641 0,1.324315 -0.736232,2.456161 -1.822266,3.029297 -0.05898,-0.175277 -0.123422,-0.351255 -0.205078,-0.53711 -0.199482,-0.45403 -0.457076,-0.932086 -0.712891,-1.373046 C 16.697353,13.954017 16.1875,13.216797 16.1875,13.216797 l -0.412109,-0.595703 -0.410157,0.595703 c 0,0 -0.509854,0.737221 -1.021484,1.619141 -0.255816,0.440959 -0.513409,0.919016 -0.712891,1.373046 -0.144377,0.32861 -0.264152,0.633838 -0.320312,0.939454 l -5.826172,0 c -1.909833,0 -3.4316406,-1.521821 -3.4316406,-3.431641 0,-0.9428 0.375495,-1.784637 0.984375,-2.404297 0.07897,-0.0802 0.1302823,-0.183532 0.1464844,-0.294922 C 5.5350478,8.6233981 7.580373,6.8556025 10,6.8515625 Z" /></svg>
