<?xml version="1.0" encoding="UTF-8" standalone="no"?><svg xmlns:svg="http://www.w3.org/2000/svg" xmlns="http://www.w3.org/2000/svg" width="24" height="24" viewBox="0 0 24 24"><path d="M 14.12164,16.556641 13.9941,7.4082031 m -1.996053,0.6953125 c 0.269439,1e-7 0.531422,0.026592 0.785156,0.078125 -1.086981,0.9174685 -1.792969,2.2730744 -1.792969,3.8007814 0,1.530215 0.70876,2.885251 1.798828,3.802734 -0.255628,0.05235 -0.519406,0.08008 -0.791015,0.08008 -2.1555117,1e-6 -3.8906248,-1.731094 -3.8906251,-3.880859 -1e-6,-2.1497664 1.7351125,-3.8808597 3.8906251,-3.8808614 z m 2.000157,7.2044794 c -1.133027,-0.67693 -1.894688,-1.907202 -1.894688,-3.325573 -1e-6,-1.415866 0.723492,-2.6043781 1.890006,-3.3102229 l 5.94e-4,-1.263996 c -0.61252,-0.2677633 -1.2864,-0.4199218 -1.996094,-0.4199219 -2.7566168,-2e-7 -5.0039076,2.2429585 -5.0039064,4.9960938 4e-7,2.753134 2.2472907,4.996094 5.0039064,4.996094 0.712192,0 1.382022,-0.147067 1.99625,-0.416614" /></svg>
