<?xml version="1.0" encoding="UTF-8" standalone="no"?><svg xmlns:svg="http://www.w3.org/2000/svg" xmlns="http://www.w3.org/2000/svg" width="24" height="24" viewBox="0 0 24 24"><path d="M 17.126953 1.0976562 C 15.050322 1.0976561 13.277028 2.3786213 12.521484 4.1835938 C 11.747866 3.8061968 10.889592 3.5919185 9.9882812 3.5917969 A 0.52891334 0.52891334 0 0 0 9.9863281 3.5917969 C 7.1033399 3.5954669 4.6688819 5.6886388 4.1757812 8.5136719 C 3.4518332 9.3093319 2.9824219 10.352151 2.9824219 11.515625 C 2.9824219 12.92958 3.6506675 14.175211 4.6738281 14.998047 L 2.0019531 14.998047 L 2.0019531 15.998047 L 7.4140625 15.998047 C 7.4340663 15.99831 7.4525905 16.003906 7.4726562 16.003906 L 16.503906 16.003906 C 18.981729 16.003906 20.992187 13.993441 20.992188 11.515625 C 20.992188 9.3374628 19.437856 7.5212762 17.378906 7.1132812 C 17.289586 6.7875583 17.232422 6.4468166 17.232422 6.0917969 C 17.232422 4.6759309 17.956533 3.4890479 19.123047 2.7832031 L 19.123047 1.5175781 C 18.510527 1.2498148 17.836647 1.0976564 17.126953 1.0976562 z M 17.126953 2.2128906 C 17.396392 2.2128904 17.658375 2.2394826 17.912109 2.2910156 C 16.825128 3.2084841 16.119141 4.5640899 16.119141 6.0917969 C 16.119141 6.4120966 16.15964 6.7228476 16.21875 7.0253906 L 15.316406 7.0253906 C 14.890269 6.1196453 14.2492 5.3600113 13.478516 4.7792969 C 14.018132 3.2837715 15.437093 2.2128919 17.126953 2.2128906 z M 9.9882812 4.6484375 C 11.996108 4.6487085 13.795243 5.8764953 14.527344 7.7460938 A 0.52891334 0.52891334 0 0 0 15.019531 8.0820312 L 16.503906 8.0820312 C 18.413739 8.0820312 19.935547 9.6057908 19.935547 11.515625 C 19.935547 13.425449 18.413739 14.947266 16.503906 14.947266 L 14.972656 14.947266 C 15.273385 14.673631 15.538983 14.358202 15.748047 13.996094 C 16.462177 12.759184 16.462177 11.233004 15.748047 9.9960938 C 15.033917 8.7591777 13.711464 7.9960938 12.283203 7.9960938 L 12.283203 8.9960938 C 13.355802 8.9960938 14.344561 9.5672071 14.880859 10.496094 C 15.41716 11.424994 15.417159 12.567204 14.880859 13.496094 C 14.43158 14.274273 13.662561 14.796711 12.794922 14.947266 L 11.369141 14.947266 C 11.638268 14.662431 11.867946 14.336319 12.023438 13.960938 C 12.533665 12.729138 12.251372 11.308014 11.308594 10.365234 C 10.365816 9.4224181 8.9446795 9.1382084 7.7128906 9.6484375 C 6.4811023 10.158665 5.6738281 11.363976 5.6738281 12.697266 L 6.6738281 12.697266 C 6.6738281 11.765566 7.232979 10.928806 8.09375 10.572266 C 8.9545207 10.215716 9.9427495 10.413456 10.601562 11.072266 C 11.260373 11.731076 11.456156 12.717345 11.099609 13.578125 C 10.802572 14.295233 10.170539 14.797749 9.4296875 14.947266 L 7.4726562 14.947266 C 5.5628234 14.947266 4.0390625 13.425449 4.0390625 11.515625 C 4.0390625 10.572826 4.4165107 9.729029 5.0253906 9.109375 A 0.52891334 0.52891334 0 0 0 5.171875 8.8164062 C 5.5234271 6.4215767 7.5677879 4.6515174 9.9882812 4.6484375 z M 2.0019531 17.017578 L 2.0019531 18.017578 L 11.357422 18.017578 C 12.062622 18.017578 12.694975 18.440277 12.964844 19.091797 C 13.234712 19.743317 13.086543 20.489631 12.587891 20.988281 C 12.089239 21.486931 11.342926 21.635104 10.691406 21.365234 C 10.039886 21.095364 9.6171875 20.463012 9.6171875 19.757812 L 8.6171875 19.757812 C 8.6171875 20.864603 9.2860549 21.865513 10.308594 22.289062 C 11.331135 22.712612 12.512303 22.477933 13.294922 21.695312 C 14.077541 20.912692 14.312222 19.731524 13.888672 18.708984 C 13.465122 17.686444 12.464213 17.017578 11.357422 17.017578 L 2.0019531 17.017578 z " /></svg>
