<?xml version="1.0" encoding="UTF-8" standalone="no"?><svg xmlns:svg="http://www.w3.org/2000/svg" xmlns="http://www.w3.org/2000/svg" width="24" height="24" viewBox="0 0 24 24"><path d="M 4.71875 3.6621094 C 3.208082 3.6641094 1.9703449 4.76068 1.6542969 6.21875 C 1.2584559 6.65731 0.98242188 7.221215 0.98242188 7.859375 C 0.98242188 9.224785 2.0974786 10.339844 3.4628906 10.339844 L 4.2871094 10.339844 C 4.2565873 10.465527 4.2100748 10.584035 4.1875 10.712891 C 3.46295 11.508681 2.9960938 12.552777 2.9960938 13.716797 C 2.9960938 16.194617 5.006552 18.207031 7.484375 18.207031 L 16.515625 18.207031 C 18.993448 18.207031 21.005859 16.194617 21.005859 13.716797 C 21.005859 11.238977 18.993448 9.2265625 16.515625 9.2265625 L 15.330078 9.2265625 C 14.357836 7.1593725 12.307491 5.7932787 10 5.7929688 C 9.799573 5.7932469 9.6077225 5.8276269 9.4121094 5.8476562 C 9.0056878 5.5565637 8.5142525 5.3789062 7.9785156 5.3789062 L 7.4492188 5.3789062 C 6.8917388 4.3683162 5.8958871 3.6622694 4.7207031 3.6621094 L 4.71875 3.6621094 z M 4.7207031 4.6621094 C 5.6284091 4.6622294 6.4385592 5.2153269 6.7695312 6.0605469 C 6.8445212 6.2528269 7.0299401 6.3792862 7.2363281 6.3789062 L 7.5019531 6.3789062 C 6.2273353 6.9844747 5.2038893 8.0286136 4.625 9.3398438 L 3.4628906 9.3398438 C 2.6344756 9.3398438 1.9824219 8.687785 1.9824219 7.859375 C 1.9824219 7.451025 2.142996 7.0901756 2.40625 6.8222656 C 2.48106 6.7463656 2.5296499 6.6484688 2.5449219 6.5429688 C 2.7039869 5.4593887 3.6255051 4.6635094 4.7207031 4.6621094 z M 10 6.8515625 L 10.001953 6.8515625 C 12.008994 6.8525625 13.807201 8.0802287 14.539062 9.9492188 A 0.52891334 0.52891334 0 0 0 15.03125 10.285156 L 16.515625 10.285156 C 18.425458 10.285156 19.949219 11.806957 19.949219 13.716797 C 19.949219 14.793345 19.454022 15.734432 18.689453 16.361328 C 18.749797 16.147696 18.792969 15.927714 18.792969 15.695312 C 18.792969 15.057403 18.51666 14.493186 18.121094 14.054688 C 17.805411 12.596116 16.565689 11.499967 15.054688 11.498047 C 13.880459 11.498207 12.884033 12.205674 12.326172 13.214844 L 11.796875 13.214844 C 10.431462 13.214844 9.3164062 14.329904 9.3164062 15.695312 C 9.3164062 16.239094 9.4977799 16.73869 9.796875 17.148438 L 7.484375 17.148438 C 5.574542 17.148438 4.0527344 15.626617 4.0527344 13.716797 C 4.0527344 12.773997 4.4282294 11.93216 5.0371094 11.3125 A 0.52891334 0.52891334 0 0 0 5.1835938 11.017578 C 5.5350478 8.6233982 7.580373 6.8556025 10 6.8515625 z M 15.052734 12.498047 L 15.054688 12.498047 C 16.149025 12.500047 17.071499 13.297919 17.230469 14.380859 A 0.50005 0.50005 0 0 0 17.367188 14.658203 C 17.630441 14.926103 17.792969 15.286962 17.792969 15.695312 C 17.792969 16.406382 17.310387 16.984402 16.650391 17.134766 C 16.604576 17.136537 16.56191 17.148438 16.515625 17.148438 L 11.513672 17.148438 C 10.824291 17.01952 10.316406 16.426854 10.316406 15.695312 C 10.316406 14.866893 10.968459 14.214844 11.796875 14.214844 L 12.539062 14.214844 A 0.50005 0.50005 0 0 0 13.003906 13.896484 C 13.33464 13.051874 14.145817 12.498967 15.052734 12.498047 z " /></svg>
