<?xml version="1.0" encoding="UTF-8" standalone="no"?><svg xmlns:svg="http://www.w3.org/2000/svg" xmlns="http://www.w3.org/2000/svg" width="24" height="24" viewBox="0 0 24 24"><path d="M 10 5.7929688 C 7.118271 5.7969687 4.682101 7.8897406 4.1875 10.712891 C 3.46295 11.508681 2.9960938 12.552777 2.9960938 13.716797 C 2.9960938 15.39474 3.9223927 16.852365 5.2871094 17.623047 C 5.3531194 18.940121 6.4427029 20 7.7753906 20 C 8.903109 20 9.8516025 19.237967 10.160156 18.207031 L 11.390625 18.207031 C 11.699179 19.237967 12.647672 20 13.775391 20 C 13.964311 20 14.145043 19.971866 14.322266 19.931641 L 16.462891 22.072266 L 19.998047 18.537109 L 18.945312 17.484375 C 20.182414 16.684259 21.005859 15.298081 21.005859 13.716797 C 21.005859 11.238977 18.993448 9.2265625 16.515625 9.2265625 L 15.330078 9.2265625 C 14.357836 7.1593725 12.307491 5.7932788 10 5.7929688 z M 10 6.8515625 L 10.001953 6.8515625 C 12.008994 6.8525625 13.8072 8.0802288 14.539062 9.9492188 C 14.618432 10.151759 14.813714 10.285046 15.03125 10.285156 L 16.515625 10.285156 C 18.425458 10.285156 19.949219 11.806957 19.949219 13.716797 C 19.949219 15.019707 19.234879 16.13506 18.177734 16.716797 L 16.462891 15.001953 L 16.109375 15.355469 L 15.693359 15.771484 C 15.536421 15.456104 15.383184 15.136213 15.208984 14.835938 C 14.697353 13.954017 14.1875 13.216797 14.1875 13.216797 L 13.775391 12.621094 L 13.365234 13.216797 C 13.365234 13.216797 12.85538 13.954018 12.34375 14.835938 C 12.087934 15.276897 11.830341 15.754954 11.630859 16.208984 C 11.486482 16.537594 11.366707 16.842822 11.310547 17.148438 L 10.240234 17.148438 C 10.184643 16.842806 10.066259 16.53761 9.921875 16.208984 C 9.722393 15.754954 9.4647994 15.276898 9.2089844 14.835938 C 8.6973534 13.954017 8.1875 13.216797 8.1875 13.216797 L 7.7753906 12.621094 L 7.3652344 13.216797 C 7.3652344 13.216797 6.85538 13.954018 6.34375 14.835938 C 6.087934 15.276897 5.8303414 15.754954 5.6308594 16.208984 C 5.5827379 16.318511 5.5492926 16.420136 5.5078125 16.525391 C 4.6260444 15.907341 4.0527344 14.886916 4.0527344 13.716797 C 4.0527344 12.773997 4.4282294 11.93216 5.0371094 11.3125 C 5.1160794 11.2323 5.1673917 11.128968 5.1835938 11.017578 C 5.5350478 8.6233981 7.580373 6.8556025 10 6.8515625 z M 7.7753906 14.4375 C 7.9639676 14.72442 8.060423 14.849511 8.34375 15.337891 C 8.587934 15.758811 8.8303414 16.211848 9.0058594 16.611328 C 9.1813774 17.010818 9.2753906 17.37475 9.2753906 17.5 C 9.2753906 18.33435 8.6097396 19 7.7753906 19 C 6.9410416 19 6.2753906 18.33435 6.2753906 17.5 C 6.2753906 17.37475 6.37136 17.010818 6.546875 16.611328 C 6.722393 16.211848 6.9647994 15.758811 7.2089844 15.337891 C 7.4920334 14.849991 7.5868126 14.72444 7.7753906 14.4375 z M 13.775391 14.4375 C 13.963968 14.72442 14.060423 14.849511 14.34375 15.337891 C 14.56876 15.725758 14.782082 16.136343 14.953125 16.511719 L 12.927734 18.537109 L 13.310547 18.919922 C 12.707915 18.725669 12.275391 18.171053 12.275391 17.5 C 12.275391 17.37475 12.37136 17.010818 12.546875 16.611328 C 12.722393 16.211848 12.964799 15.758811 13.208984 15.337891 C 13.492033 14.849991 13.586813 14.72444 13.775391 14.4375 z M 16.462891 16.416016 L 18.583984 18.537109 L 16.462891 20.658203 L 14.341797 18.537109 L 16.462891 16.416016 z " /></svg>
