<?xml version="1.0" encoding="UTF-8" standalone="no"?><svg xmlns:svg="http://www.w3.org/2000/svg" xmlns="http://www.w3.org/2000/svg" width="24" height="24" viewBox="0 0 24 24"><path d="M 10 5.7929688 C 7.118271 5.7969687 4.682101 7.8897406 4.1875 10.712891 C 3.46295 11.508681 2.9960938 12.552777 2.9960938 13.716797 C 2.9960938 15.395357 3.9215729 16.854548 5.2871094 17.625 C 5.3541112 18.941162 6.4433648 20 7.7753906 20 C 8.903109 20 9.8516025 19.237967 10.160156 18.207031 L 11.636719 18.207031 L 11.871094 18.607422 L 11.742188 19.089844 L 12.710938 19.34375 L 13.009766 18.207031 L 13.572266 18.207031 L 13.447266 19.369141 L 14.683594 18.462891 L 14.683594 19.142578 L 13.830078 19.996094 L 14.537109 20.703125 L 14.890625 20.349609 L 15.476562 20.349609 L 15.830078 20.703125 L 16.537109 19.996094 L 15.683594 19.142578 L 15.683594 18.462891 L 16.921875 19.369141 L 16.792969 18.179688 C 16.941842 18.170414 17.08976 18.158231 17.234375 18.134766 L 17.394531 18.226562 L 17.710938 19.394531 L 18.675781 19.132812 L 18.544922 18.652344 L 18.837891 18.142578 L 19.320312 18.011719 L 19.140625 17.34375 C 20.265739 16.527357 21.005859 15.211581 21.005859 13.716797 C 21.005859 11.238977 18.993448 9.2265625 16.515625 9.2265625 L 15.330078 9.2265625 C 14.357836 7.1593725 12.307491 5.7932788 10 5.7929688 z M 10 6.8515625 L 10.001953 6.8515625 C 12.008994 6.8525625 13.8072 8.0802288 14.539062 9.9492188 C 14.618432 10.151759 14.813714 10.285046 15.03125 10.285156 L 16.515625 10.285156 C 18.425458 10.285156 19.949219 11.806957 19.949219 13.716797 C 19.949219 15.341674 18.841264 16.676134 17.335938 17.041016 L 17.240234 16.986328 L 18.660156 16.359375 L 17.621094 15.900391 L 17.277344 15.75 L 17.865234 15.402344 L 19.035156 15.705078 L 19.285156 14.736328 L 18.800781 14.611328 L 18.501953 14.105469 L 18.626953 13.623047 L 17.658203 13.373047 L 17.359375 14.541016 L 16.751953 14.898438 L 16.921875 13.349609 L 15.683594 14.255859 L 15.683594 13.5625 L 16.537109 12.708984 L 15.830078 12.001953 L 15.476562 12.355469 L 14.890625 12.355469 L 14.537109 12.001953 L 13.830078 12.708984 L 14.683594 13.5625 L 14.683594 14.253906 L 13.447266 13.349609 L 13.613281 14.884766 L 12.931641 14.480469 L 12.632812 13.310547 L 11.664062 13.558594 L 11.787109 14.041016 L 11.488281 14.546875 L 11.003906 14.669922 L 11.251953 15.638672 L 12.421875 15.339844 L 13.103516 15.744141 L 11.708984 16.359375 L 13.101562 16.972656 L 12.798828 17.148438 L 11.886719 17.148438 L 11.347656 17.005859 L 11.310547 17.148438 L 10.240234 17.148438 C 10.184643 16.842806 10.066259 16.53761 9.921875 16.208984 C 9.722393 15.754954 9.4647994 15.276898 9.2089844 14.835938 C 8.6973534 13.954017 8.1875 13.216797 8.1875 13.216797 L 7.7753906 12.621094 L 7.3652344 13.216797 C 7.3652344 13.216797 6.85538 13.954018 6.34375 14.835938 C 6.087934 15.276897 5.8303414 15.754954 5.6308594 16.208984 C 5.5830959 16.317696 5.5509977 16.41894 5.5097656 16.523438 C 4.6278965 15.905398 4.0527344 14.886995 4.0527344 13.716797 C 4.0527344 12.773997 4.4282294 11.93216 5.0371094 11.3125 C 5.1160794 11.2323 5.1673917 11.128968 5.1835938 11.017578 C 5.5350478 8.6233981 7.580373 6.8556025 10 6.8515625 z M 7.7753906 14.4375 C 7.9639676 14.72442 8.060423 14.849511 8.34375 15.337891 C 8.587934 15.758811 8.8303414 16.211848 9.0058594 16.611328 C 9.1813774 17.010818 9.2753906 17.37475 9.2753906 17.5 C 9.2753906 18.33435 8.6097396 19 7.7753906 19 C 6.9410416 19 6.2753906 18.33435 6.2753906 17.5 C 6.2753906 17.37475 6.37136 17.010818 6.546875 16.611328 C 6.722393 16.211848 6.9647994 15.758811 7.2089844 15.337891 C 7.4920334 14.849991 7.5868126 14.72444 7.7753906 14.4375 z M 14.683594 15.496094 L 14.685547 15.496094 L 15.683594 15.496094 L 16.181641 16.357422 L 15.722656 17.148438 L 14.644531 17.148438 L 14.185547 16.359375 L 14.683594 15.496094 z " /></svg>
