<?xml version="1.0" encoding="UTF-8" standalone="no"?><svg xmlns:svg="http://www.w3.org/2000/svg" xmlns="http://www.w3.org/2000/svg" width="24" height="24" viewBox="0 0 24 24"><path d="M 10 5.7929688 C 7.118271 5.7969687 4.682101 7.8897406 4.1875 10.712891 C 3.46295 11.508681 2.9960938 12.552777 2.9960938 13.716797 C 2.9960938 15.395238 3.9217334 16.854507 5.2871094 17.625 C 5.3541112 18.941162 6.4433648 20 7.7753906 20 C 8.903109 20 9.8516025 19.237967 10.160156 18.207031 L 12.671875 18.207031 L 14.464844 20 L 16.257812 18.207031 L 16.515625 18.207031 C 18.993448 18.207031 21.005859 16.194617 21.005859 13.716797 C 21.005859 11.238977 18.993448 9.2265625 16.515625 9.2265625 L 15.330078 9.2265625 C 14.357836 7.1593725 12.307491 5.7932788 10 5.7929688 z M 10 6.8515625 L 10.001953 6.8515625 C 12.008994 6.8525625 13.8072 8.0802288 14.539062 9.9492188 C 14.618432 10.151759 14.813714 10.285046 15.03125 10.285156 L 16.515625 10.285156 C 18.425458 10.285156 19.949219 11.806957 19.949219 13.716797 C 19.949219 15.2948 18.901683 16.5933 17.462891 17.001953 L 18 16.464844 L 14.464844 12.929688 L 14.111328 13.283203 L 10.929688 16.464844 L 11.613281 17.148438 L 10.240234 17.148438 C 10.184643 16.842806 10.066259 16.53761 9.921875 16.208984 C 9.722393 15.754954 9.4647994 15.276898 9.2089844 14.835938 C 8.6973534 13.954017 8.1875 13.216797 8.1875 13.216797 L 7.7753906 12.621094 L 7.3652344 13.216797 C 7.3652344 13.216797 6.85538 13.954018 6.34375 14.835938 C 6.087934 15.276897 5.8303414 15.754954 5.6308594 16.208984 C 5.5827379 16.318511 5.5492926 16.420136 5.5078125 16.525391 C 4.6259937 15.907352 4.0527344 14.88696 4.0527344 13.716797 C 4.0527344 12.773997 4.4282294 11.93216 5.0371094 11.3125 C 5.1160794 11.2323 5.1673917 11.128968 5.1835938 11.017578 C 5.5350478 8.6233981 7.580373 6.8556025 10 6.8515625 z M 14.464844 14.34375 L 16.585938 16.464844 L 14.464844 18.585938 L 12.34375 16.464844 L 14.464844 14.34375 z M 7.7753906 14.4375 C 7.9639676 14.72442 8.060423 14.849511 8.34375 15.337891 C 8.587934 15.758811 8.8303414 16.211848 9.0058594 16.611328 C 9.1813774 17.010818 9.2753906 17.37475 9.2753906 17.5 C 9.2753906 18.33435 8.6097396 19 7.7753906 19 C 6.9410416 19 6.2753906 18.33435 6.2753906 17.5 C 6.2753906 17.37475 6.37136 17.010818 6.546875 16.611328 C 6.722393 16.211848 6.9647994 15.758811 7.2089844 15.337891 C 7.4920334 14.849991 7.5868126 14.72444 7.7753906 14.4375 z " /></svg>
