<?xml version="1.0" encoding="UTF-8" standalone="no"?><svg xmlns:svg="http://www.w3.org/2000/svg" xmlns="http://www.w3.org/2000/svg" width="24" height="24" viewBox="0 0 24 24"><path d="M 15.486328 2.0898438 C 15.210184 2.0938438 14.989822 2.3215164 14.994141 2.5976562 L 14.994141 5.4238281 C 14.60953 5.496007 14.253402 5.647062 13.943359 5.8632812 C 13.285551 5.2047478 12.618131 4.5380562 11.947266 3.8671875 C 11.750782 3.6644775 11.424982 3.6644675 11.228516 3.8671875 C 11.036081 4.0652775 11.041914 4.3820088 11.240234 4.5742188 L 13.238281 6.5722656 L 13.238281 6.5742188 C 13.205565 6.6224719 13.187839 6.6801016 13.158203 6.7304688 C 12.237208 6.1334521 11.150699 5.7931233 10 5.7929688 C 7.118271 5.7969687 4.682101 7.8897406 4.1875 10.712891 C 3.46295 11.508681 2.9960938 12.552777 2.9960938 13.716797 C 2.9960938 16.194617 5.006552 18.207031 7.484375 18.207031 L 16.515625 18.207031 C 18.993448 18.207031 21.005859 16.194617 21.005859 13.716797 C 21.005859 11.698901 19.661911 10.01031 17.828125 9.4453125 C 17.980987 9.1835858 18.107427 8.9047862 18.166016 8.5976562 L 20.912109 8.5976562 C 21.690403 8.6076562 21.690403 7.5880963 20.912109 7.5976562 L 18.167969 7.5976562 C 18.097749 7.2206272 17.951825 6.8702578 17.742188 6.5644531 C 18.401346 5.9060201 19.068712 5.2379313 19.740234 4.5664062 C 19.942535 4.370309 19.941738 4.0461892 19.740234 3.8496094 C 19.542142 3.6571694 19.22541 3.6611006 19.033203 3.859375 L 17.035156 5.8554688 C 16.72727 5.6430027 16.374616 5.495211 15.994141 5.4238281 C 15.994657 4.4920866 15.994141 3.5474007 15.994141 2.5976562 C 15.998541 2.3153862 15.768593 2.0854238 15.486328 2.0898438 z M 15.494141 6.3730469 C 16.452461 6.3730469 17.21875 7.1367969 17.21875 8.0917969 C 17.21875 8.5433959 17.041748 8.946424 16.759766 9.2519531 C 16.677245 9.2474265 16.599266 9.2265625 16.515625 9.2265625 L 15.330078 9.2265625 C 14.990199 8.5039073 14.511673 7.874462 13.943359 7.3515625 C 14.219029 6.7725437 14.803531 6.3730469 15.494141 6.3730469 z M 10 6.8515625 L 10.001953 6.8515625 C 12.008994 6.8525625 13.8072 8.0802288 14.539062 9.9492188 A 0.52891334 0.52891334 0 0 0 15.03125 10.285156 L 16.515625 10.285156 C 18.425458 10.285156 19.949219 11.806957 19.949219 13.716797 C 19.949219 15.626617 18.425458 17.148438 16.515625 17.148438 L 7.484375 17.148438 C 5.574542 17.148438 4.0527344 15.626617 4.0527344 13.716797 C 4.0527344 12.773997 4.4282294 11.93216 5.0371094 11.3125 A 0.52891334 0.52891334 0 0 0 5.1835938 11.017578 C 5.5350478 8.6233981 7.580373 6.8556025 10 6.8515625 z " /></svg>
