<?xml version="1.0" encoding="UTF-8" standalone="no"?><svg xmlns:svg="http://www.w3.org/2000/svg" xmlns="http://www.w3.org/2000/svg" width="24" height="24" viewBox="0 0 24 24"><path d="M 10 5.7929688 C 7.118271 5.7969687 4.682101 7.8897406 4.1875 10.712891 C 3.46295 11.508681 2.9960938 12.552777 2.9960938 13.716797 C 2.9960938 16.194617 5.006552 18.207031 7.484375 18.207031 L 13.390625 18.207031 C 13.699179 19.237967 14.647672 20 15.775391 20 C 17.029171 20 18.065775 19.061041 18.240234 17.853516 C 19.860645 17.175466 21.005859 15.581726 21.005859 13.716797 C 21.005859 11.238977 18.993448 9.2265625 16.515625 9.2265625 L 15.330078 9.2265625 C 14.357836 7.1593725 12.307491 5.7932788 10 5.7929688 z M 10 6.8515625 L 10.001953 6.8515625 C 12.008994 6.8525625 13.8072 8.0802288 14.539062 9.9492188 C 14.618432 10.151759 14.813714 10.285046 15.03125 10.285156 L 16.515625 10.285156 C 18.425458 10.285156 19.949219 11.806957 19.949219 13.716797 C 19.949219 15.041112 19.212987 16.172958 18.126953 16.746094 C 18.067975 16.570817 18.003531 16.394839 17.921875 16.208984 C 17.722393 15.754954 17.464799 15.276898 17.208984 14.835938 C 16.697353 13.954017 16.1875 13.216797 16.1875 13.216797 L 15.775391 12.621094 L 15.365234 13.216797 C 15.365234 13.216797 14.85538 13.954018 14.34375 14.835938 C 14.087934 15.276897 13.830341 15.754954 13.630859 16.208984 C 13.486482 16.537594 13.366707 16.842822 13.310547 17.148438 L 7.484375 17.148438 C 5.574542 17.148438 4.0527344 15.626617 4.0527344 13.716797 C 4.0527344 12.773997 4.4282294 11.93216 5.0371094 11.3125 C 5.1160794 11.2323 5.1673917 11.128968 5.1835938 11.017578 C 5.5350478 8.6233981 7.580373 6.8556025 10 6.8515625 z M 15.775391 14.4375 C 15.963968 14.72442 16.060423 14.849511 16.34375 15.337891 C 16.587934 15.758811 16.830341 16.211848 17.005859 16.611328 C 17.181377 17.010818 17.275391 17.37475 17.275391 17.5 C 17.275391 18.33435 16.60974 19 15.775391 19 C 14.941042 19 14.275391 18.33435 14.275391 17.5 C 14.275391 17.37475 14.37136 17.010818 14.546875 16.611328 C 14.722393 16.211848 14.964799 15.758811 15.208984 15.337891 C 15.492033 14.849991 15.586813 14.72444 15.775391 14.4375 z " /></svg>
