<?xml version="1.0" encoding="UTF-8" standalone="no"?><svg xmlns:svg="http://www.w3.org/2000/svg" xmlns="http://www.w3.org/2000/svg" width="24" height="24" viewBox="0 0 24 24"><path d="M 12.126953 5.9921875 A 0.50005 0.50005 0 0 0 11.634766 6.5 L 11.634766 9.3261719 C 11.24829 9.3987008 10.891169 9.5516531 10.580078 9.7695312 L 8.5917969 7.7792969 C 8.1205439 7.2884269 7.3938926 8.0150781 7.8847656 8.4863281 L 9.8789062 10.478516 C 9.6737421 10.781521 9.5301525 11.127807 9.4609375 11.5 L 6.734375 11.5 A 0.5903394 0.50005 0 1 0 6.734375 12.5 L 9.4628906 12.5 C 9.5346826 12.876917 9.6835234 13.226103 9.8945312 13.53125 L 7.8964844 15.527344 C 7.5712004 15.845344 7.8050346 16.397246 8.2597656 16.384766 C 8.3895256 16.380766 8.5127956 16.327265 8.6035156 16.234375 L 10.601562 14.236328 C 10.906564 14.445177 11.256877 14.591282 11.632812 14.662109 L 11.632812 17.492188 A 0.50005 0.50005 0 0 0 12.125 18 A 0.50005 0.50005 0 0 0 12.632812 17.492188 L 12.632812 15.074219 A 0.50005 0.50005 0 0 0 12.632812 14.912109 L 12.632812 14.664062 C 13.005493 14.594425 13.352932 14.449563 13.65625 14.244141 L 15.667969 16.25 C 16.139222 16.74084 16.865839 16.014219 16.375 15.542969 L 14.365234 13.542969 C 14.580809 13.234894 14.731912 12.88207 14.804688 12.5 L 17.529297 12.5 A 0.59943329 0.50005 0 1 0 17.529297 11.5 L 14.806641 11.5 C 14.735909 11.119665 14.589258 10.766683 14.376953 10.458984 L 16.375 8.46875 C 16.703839 8.15094 16.468801 7.594945 16.011719 7.609375 C 15.881681 7.613375 15.758371 7.6681787 15.667969 7.7617188 L 13.673828 9.7558594 C 13.366707 9.5441941 13.014226 9.3973842 12.634766 9.3261719 L 12.634766 9.0800781 A 0.50005 0.50005 0 0 0 12.634766 8.9179688 L 12.634766 6.5 A 0.50005 0.50005 0 0 0 12.126953 5.9921875 z M 12.134766 10.275391 C 13.093086 10.275391 13.857422 11.039151 13.857422 11.994141 C 13.857422 12.949141 13.093086 13.712891 12.134766 13.712891 C 11.176447 13.712891 10.412109 12.949141 10.412109 11.994141 C 10.412109 11.039151 11.176447 10.275391 12.134766 10.275391 z " /></svg>
