<?xml version="1.0" encoding="UTF-8" standalone="no"?><svg xmlns:svg="http://www.w3.org/2000/svg" xmlns="http://www.w3.org/2000/svg" width="24" height="24" viewBox="0 0 24 24"><path d="M 10 5.7929688 C 7.118271 5.7969687 4.682101 7.8897406 4.1875 10.712891 C 3.46295 11.508681 2.9960938 12.552777 2.9960938 13.716797 C 2.9960938 16.194617 5.006552 18.207031 7.484375 18.207031 L 13.257812 18.207031 L 12.927734 18.537109 L 16.462891 22.072266 L 19.998047 18.537109 L 18.943359 17.482422 C 20.180648 16.682345 21.005859 15.298226 21.005859 13.716797 C 21.005859 11.238977 18.993448 9.2265625 16.515625 9.2265625 L 15.330078 9.2265625 C 14.357836 7.1593725 12.307491 5.7932788 10 5.7929688 z M 10 6.8515625 L 10.001953 6.8515625 C 12.008994 6.8525625 13.8072 8.0802288 14.539062 9.9492188 C 14.618432 10.151759 14.813714 10.285046 15.03125 10.285156 L 16.515625 10.285156 C 18.425458 10.285156 19.949219 11.806957 19.949219 13.716797 C 19.949219 15.019556 19.236622 16.136954 18.179688 16.71875 L 16.462891 15.001953 L 16.109375 15.355469 L 14.316406 17.148438 L 7.484375 17.148438 C 5.574542 17.148438 4.0527344 15.626617 4.0527344 13.716797 C 4.0527344 12.773997 4.4282294 11.93216 5.0371094 11.3125 C 5.1160794 11.2323 5.1673917 11.128968 5.1835938 11.017578 C 5.5350478 8.6233981 7.580373 6.8556025 10 6.8515625 z M 9.53125 7.9980469 L 8.8242188 8.7050781 L 9.6777344 9.5585938 L 9.6777344 10.25 L 8.4414062 9.3457031 L 8.6074219 10.880859 L 7.9257812 10.476562 L 7.6269531 9.3066406 L 6.6582031 9.5546875 L 6.78125 10.037109 L 6.4824219 10.542969 L 5.9980469 10.666016 L 6.2460938 11.634766 L 7.4160156 11.335938 L 8.0976562 11.740234 L 6.703125 12.355469 L 8.0957031 12.96875 L 7.5078125 13.310547 L 6.3417969 13.001953 L 6.0859375 13.96875 L 6.5683594 14.097656 L 6.8652344 14.603516 L 6.7363281 15.085938 L 7.7050781 15.339844 L 8.0117188 14.173828 L 8.6074219 13.826172 L 8.4414062 15.365234 L 9.6777344 14.458984 L 9.6777344 15.138672 L 8.8242188 15.992188 L 9.53125 16.699219 L 9.8847656 16.345703 L 10.470703 16.345703 L 10.824219 16.699219 L 11.53125 15.992188 L 10.677734 15.138672 L 10.677734 14.458984 L 11.916016 15.365234 L 11.751953 13.857422 L 12.388672 14.222656 L 12.705078 15.390625 L 13.669922 15.128906 L 13.539062 14.648438 L 13.832031 14.138672 L 14.314453 14.007812 L 14.054688 13.042969 L 12.888672 13.357422 L 12.234375 12.982422 L 13.654297 12.355469 L 12.615234 11.896484 L 12.271484 11.746094 L 12.859375 11.398438 L 14.029297 11.701172 L 14.279297 10.732422 L 13.794922 10.607422 L 13.496094 10.101562 L 13.621094 9.6191406 L 12.652344 9.3691406 L 12.353516 10.537109 L 11.746094 10.894531 L 11.916016 9.3457031 L 10.677734 10.251953 L 10.677734 9.5585938 L 11.53125 8.7050781 L 10.824219 7.9980469 L 10.470703 8.3515625 L 9.8847656 8.3515625 L 9.53125 7.9980469 z M 9.6777344 11.492188 L 9.6796875 11.492188 L 10.677734 11.492188 L 11.175781 12.353516 L 10.673828 13.21875 L 9.6796875 13.216797 L 9.1796875 12.355469 L 9.6777344 11.492188 z M 16.462891 16.416016 L 18.583984 18.537109 L 16.462891 20.658203 L 14.341797 18.537109 L 16.462891 16.416016 z " /></svg>
