<?xml version="1.0" encoding="UTF-8" standalone="no"?><svg xmlns:svg="http://www.w3.org/2000/svg" xmlns="http://www.w3.org/2000/svg" width="24" height="24" viewBox="0 0 24 24"><path d="m 10.555124,5.7328645 c -2.881729,0.004 -5.317899,2.09677 -5.8125,4.9199195 -0.72455,0.79579 -1.191406,1.83989 -1.191406,3.00391 0,1.6386 0.883121,3.06744 2.195312,3.85156 l -1.40039,2.48242 -1.84375,3.26563 a 0.50004997,0.50004997 0 0 0 0.757812,0.62695 l 3.699219,-3.13477 1.646484,-1.39843 1.728516,0.12109 a 0.50004997,0.50004997 0 0 0 0.470703,-0.25195 l 0.605469,-1.07227 3.265625,0 c -0.07035,0.2258 -0.117188,0.44754 -0.117188,0.67383 0,1.37479 1.125211,2.5 2.5,2.5 1.374789,0 2.5,-1.12521 2.5,-2.5 0,-0.40863 -0.146884,-0.80344 -0.333984,-1.23438 1.388435,-0.76414 2.335937,-2.23451 2.335937,-3.92968 0,-2.47782 -2.012411,-4.4902395 -4.490234,-4.4902395 l -1.185547,0 c -0.972242,-2.06719 -3.022587,-3.43328 -5.330078,-3.43359 z m 0,1.05859 0.002,0 c 2.007041,10e-4 3.805247,1.22867 4.537109,3.09766 0.07937,0.2025395 0.274652,0.3358295 0.492188,0.3359395 l 1.484375,0 c 1.909833,0 3.433594,1.5218 3.433594,3.43164 0,1.29769 -0.70769,2.41041 -1.757813,2.99414 -0.08968,-0.16536 -0.163848,-0.33554 -0.255859,-0.49414 -0.51163,-0.88192 -1.021485,-1.61914 -1.021485,-1.61914 l -0.410156,-0.59571 -0.412109,0.59571 c 0,0 -0.509854,0.73722 -1.021485,1.61914 -0.173626,0.29929 -0.327835,0.61728 -0.484374,0.93164 l -3.132813,0 0.640625,-1.13477 a 0.50004997,0.50004997 0 0 0 0,-0.002 l 1.84375,-3.26758 a 0.50004997,0.50004997 0 0 0 -0.443359,-0.74414 0.50004997,0.50004997 0 0 0 -0.316407,0.11719 l -3.699218,3.13476 -1.646485,1.39844 -1.726562,-0.12109 a 0.50004997,0.50004997 0 0 0 -0.376953,0.13476 c -1.004597,-0.59535 -1.675782,-1.6832 -1.675782,-2.94726 0,-0.9428 0.375495,-1.78464 0.984375,-2.4043 0.07897,-0.0802 0.130283,-0.18353 0.146485,-0.29492 0.351454,-2.3941795 2.396779,-4.1619795 4.816406,-4.1660195 z m 1.693359,7.8339895 -0.470703,0.83593 -1.689453,2.99024 -1.537109,-0.10938 -0.06836,-0.006 a 0.50004997,0.50004997 0 0 0 -0.365234,0.11719 l -1.804688,1.53125 -1.564453,1.32422 0.46875,-0.82812 1.6875,-2.99219 1.53711,0.10937 0.07031,0.006 a 0.50004997,0.50004997 0 0 0 0.363281,-0.11718 l 1.804688,-1.53125 1.568359,-1.33008 z m 4.808594,1.13281 c 0.188576,0.28691 0.285033,0.41201 0.568359,0.90039 0.244186,0.42092 0.486591,0.87395 0.66211,1.27344 0.175518,0.39949 0.271484,0.76342 0.271484,0.88867 0,0.83435 -0.665651,1.5 -1.5,1.5 -0.834349,0 -1.5,-0.66565 -1.5,-1.5 0,-0.12525 0.09401,-0.48918 0.269532,-0.88867 0.175517,-0.39949 0.417925,-0.85252 0.662109,-1.27344 0.28305,-0.4879 0.377827,-0.61345 0.566406,-0.90039 z" /></svg>
