<?xml version="1.0" encoding="UTF-8" standalone="no"?><svg xmlns:svg="http://www.w3.org/2000/svg" xmlns="http://www.w3.org/2000/svg" width="24" height="24" viewBox="0 0 24 24"><path d="M 15.486328 0.88085938 C 15.210184 0.88485938 14.989822 1.1125321 14.994141 1.3886719 L 14.994141 4.2148438 C 14.60953 4.2870228 14.253402 4.4380775 13.943359 4.6542969 C 13.285551 3.9957635 12.618131 3.3290722 11.947266 2.6582031 C 11.750782 2.455493 11.424982 2.4554831 11.228516 2.6582031 C 11.036081 2.8562932 11.041912 3.1730243 11.240234 3.3652344 L 13.238281 5.3632812 L 13.238281 5.3652344 C 13.205561 5.4134874 13.187843 5.471117 13.158203 5.5214844 C 12.237208 4.9244706 11.150699 4.5841386 10 4.5839844 C 7.118271 4.5879842 4.682101 6.6807555 4.1875 9.5039062 C 3.46295 10.299702 2.9960938 11.343792 2.9960938 12.507812 C 2.9960938 13.924288 3.6656583 15.172814 4.6914062 15.996094 L 2.0039062 15.996094 L 2.0039062 16.996094 L 7.4648438 16.996094 C 7.4715255 16.996123 7.4776864 16.998047 7.484375 16.998047 L 16.515625 16.998047 C 18.993448 16.998047 21.005859 14.985633 21.005859 12.507812 C 21.005859 10.489916 19.661911 8.8013258 17.828125 8.2363281 C 17.980987 7.9746016 18.107427 7.6958019 18.166016 7.3886719 L 20.912109 7.3886719 C 21.690403 7.3986719 21.690403 6.379112 20.912109 6.3886719 L 18.167969 6.3886719 C 18.097749 6.0116428 17.951825 5.6612735 17.742188 5.3554688 C 18.401346 4.697036 19.068712 4.0289462 19.740234 3.3574219 C 19.942535 3.1613247 19.941738 2.8372048 19.740234 2.640625 C 19.542142 2.4481852 19.22541 2.4521116 19.033203 2.6503906 L 17.035156 4.6464844 C 16.72727 4.4340182 16.374616 4.2862266 15.994141 4.2148438 C 15.994657 3.2831035 15.994141 2.338417 15.994141 1.3886719 C 15.998541 1.1064021 15.768593 0.87643937 15.486328 0.88085938 z M 15.494141 5.1640625 C 16.452461 5.1640625 17.21875 5.9278125 17.21875 6.8828125 C 17.21875 7.3344115 17.041748 7.7374379 16.759766 8.0429688 C 16.677246 8.0384387 16.599266 8.0175781 16.515625 8.0175781 L 15.330078 8.0175781 C 14.990199 7.2949221 14.511673 6.6654775 13.943359 6.1425781 C 14.219029 5.56356 14.803531 5.1640625 15.494141 5.1640625 z M 10 5.6425781 L 10.001953 5.6425781 C 12.008994 5.6435781 13.8072 6.8712432 14.539062 8.7402344 A 0.52891334 0.52891334 0 0 0 15.03125 9.0761719 L 16.515625 9.0761719 C 18.425458 9.0761719 19.949219 10.597973 19.949219 12.507812 C 19.949219 14.417632 18.425458 15.939453 16.515625 15.939453 L 14.982422 15.939453 C 15.280122 15.667246 15.542606 15.353358 15.75 14.994141 C 16.46413 13.757231 16.46413 12.231051 15.75 10.994141 C 15.03587 9.757224 13.713417 8.9941406 12.285156 8.9941406 L 12.285156 9.9941406 C 13.357755 9.9941406 14.346514 10.565244 14.882812 11.494141 C 15.419113 12.423039 15.419112 13.565244 14.882812 14.494141 C 14.437709 15.265085 13.679965 15.783374 12.822266 15.939453 L 11.376953 15.939453 C 11.643589 15.655982 11.870987 15.331745 12.025391 14.958984 C 12.535618 13.727185 12.253325 12.306059 11.310547 11.363281 C 10.367769 10.420456 8.9466426 10.136256 7.7148438 10.646484 C 6.483045 11.156712 5.6757812 12.362024 5.6757812 13.695312 L 6.6757812 13.695312 C 6.6757812 12.763613 7.2349249 11.926858 8.0957031 11.570312 C 8.9564808 11.213767 9.9447025 11.411501 10.603516 12.070312 C 11.262326 12.729124 11.45811 13.715395 11.101562 14.576172 C 10.807934 15.285056 10.186847 15.783544 9.4570312 15.939453 L 7.484375 15.939453 C 5.574542 15.939453 4.0527344 14.417632 4.0527344 12.507812 C 4.0527344 11.565012 4.4282294 10.723176 5.0371094 10.103516 A 0.52891334 0.52891334 0 0 0 5.1835938 9.8085938 C 5.5350478 7.4144128 7.580373 5.6466177 10 5.6425781 z M 2.0039062 18.015625 L 2.0039062 19.015625 L 11.359375 19.015625 C 12.064575 19.015625 12.696928 19.438324 12.966797 20.089844 C 13.236665 20.741364 13.088496 21.487676 12.589844 21.986328 C 12.091192 22.48498 11.344879 22.63315 10.693359 22.363281 C 10.041839 22.093413 9.6191406 21.46106 9.6191406 20.755859 L 8.6191406 20.755859 C 8.6191406 21.86265 9.2880036 22.863559 10.310547 23.287109 C 11.333088 23.71066 12.514256 23.475979 13.296875 22.693359 C 14.079494 21.91074 14.314175 20.729572 13.890625 19.707031 C 13.467075 18.68449 12.466166 18.015625 11.359375 18.015625 L 2.0039062 18.015625 z " /></svg>
